<svg xmlns="http://www.w3.org/2000/svg" viewBox="0 0 542 542"><defs><style>.cls-1{fill:#dcdde0;}.cls-2{fill:#6a9ed3;}.cls-3{fill:#5f55af;}</style></defs><title>btn1</title><g id="Capa_2" data-name="Capa 2"><g id="Capa_1-2" data-name="Capa 1"><circle class="cls-1" cx="271" cy="271" r="271"/><path class="cls-2" d="M484.06,188.47H58.25A13.12,13.12,0,0,0,45,201.73v159A13.12,13.12,0,0,0,58.25,374H484.06a13.12,13.12,0,0,0,13.26-13.25v-159A13.13,13.13,0,0,0,484.06,188.47Z"/><path class="cls-2" d="M497.32,201.73v159A13.12,13.12,0,0,1,484.06,374H218.15V188.47H484.06A13.13,13.13,0,0,1,497.32,201.73Z"/><path class="cls-3" d="M165.15,241.48h-53a13.25,13.25,0,1,0,0,26.5h13.25v39.76a13.25,13.25,0,0,0,26.5,0V268h13.26a13.25,13.25,0,0,0,0-26.5Z"/><path class="cls-3" d="M257.91,413.75A13.12,13.12,0,0,1,244.65,427h-53a13.25,13.25,0,1,1,0-26.5H204.9V162H191.65a13.25,13.25,0,0,1,0-26.5h53a13.25,13.25,0,1,1,0,26.5H231.4V400.5h13.25A13.12,13.12,0,0,1,257.91,413.75Z"/></g></g></svg>