<svg xmlns="http://www.w3.org/2000/svg" viewBox="0 0 542 542"><defs><style>.cls-1{fill:#dcdde0;}.cls-2{opacity:0.2;}.cls-3{fill:#5f55af;}</style></defs><title>btn2dis</title><g id="Capa_2" data-name="Capa 2"><g id="Capa_1-2" data-name="Capa 1"><circle class="cls-1" cx="271" cy="271" r="271"/><g class="cls-2"><line class="cls-3" x1="95.12" y1="434.5" x2="249.77" y2="287.24"/><rect class="cls-3" x="65.67" y="330.96" width="213.55" height="59.82" rx="18.65" transform="translate(-201.29 218.44) rotate(-43.6)"/><path class="cls-3" d="M264,283.22V402.68a10.13,10.13,0,0,1-10.14,10.14h-27.5a10.16,10.16,0,0,1-10.15-10.14V320.86H134.35a10.14,10.14,0,0,1-10.14-10.14v-27.5a10.15,10.15,0,0,1,10.14-10.15H253.8A10.16,10.16,0,0,1,264,283.22Z"/><path class="cls-3" d="M216.16,273.09v47.79H197.89l-30.49,0H134.35a10.14,10.14,0,0,1-10.14-10.14v-27.5a10.14,10.14,0,0,1,10.15-10.14h81.8Z"/><polygon class="cls-3" points="216.16 273.09 216.16 320.88 204.56 320.87 204.56 273.08 216.16 273.09"/><line class="cls-3" x1="292.89" y1="244.2" x2="447.55" y2="96.94"/><rect class="cls-3" x="263.44" y="140.66" width="213.55" height="59.82" rx="18.65" transform="translate(-15.52 302.33) rotate(-43.6)"/><path class="cls-3" d="M289.12,258.05H408.58a10.14,10.14,0,0,0,10.14-10.14v-27.5a10.15,10.15,0,0,0-10.14-10.15H326.76v-81.8a10.15,10.15,0,0,0-10.14-10.15h-27.5A10.15,10.15,0,0,0,279,128.45V247.9A10.16,10.16,0,0,0,289.12,258.05Z"/><path class="cls-3" d="M279,210.25h47.79V192l0-30.49V128.45a10.15,10.15,0,0,0-10.14-10.15h-27.5A10.15,10.15,0,0,0,279,128.45v81.8Z"/></g></g></g></svg>