<svg xmlns="http://www.w3.org/2000/svg" viewBox="0 0 542 542"><defs><style>.cls-1{fill:#dcdde0;}.cls-2{fill:#5f55af;}.cls-2,.cls-3{opacity:0.2;}.cls-3{fill:#6a9ed3;}</style></defs><title>btn4dis</title><g id="Capa_2" data-name="Capa 2"><g id="Capa_1-2" data-name="Capa 1"><circle class="cls-1" cx="271" cy="271" r="271"/><path class="cls-2" d="M117.4,444a32.67,32.67,0,0,1-24.22-9.24c-16.73-16.73-10.8-47.36,18.14-93.66,23.72-37.94,60.59-82.65,103.84-125.91s88-80.13,125.91-103.84C387.37,82.44,418,76.5,434.74,93.24s10.79,47.36-18.14,93.66c-23.72,37.94-60.6,82.66-103.85,125.91s-88,80.13-125.91,103.84C157.6,434.93,134.59,444,117.4,444ZM409.55,118.41c-6.63.23-24.68,5.24-58.17,27.34-34,22.45-73.75,55.78-111.81,93.85s-71.4,77.77-93.85,111.81c-22.1,33.49-27.11,51.54-27.34,58.17,6.63-.23,24.68-5.24,58.17-27.34,34-22.45,73.75-55.78,111.81-93.85s71.4-77.77,93.85-111.81c22.1-33.48,27.11-51.53,27.34-58.16Z"/><circle class="cls-3" cx="263.97" cy="264" r="120.76"/><path class="cls-2" d="M117.4,444a32.67,32.67,0,0,1-24.22-9.24l24.4-24.39a4.2,4.2,0,0,0-1.47-1c3.72,1.1,21.8-1.66,60.43-27.15,34-22.45,73.75-55.78,111.81-93.85s71.4-77.77,93.86-111.81c25.48-38.63,28.24-56.71,27.14-60.43a4.16,4.16,0,0,0,1,1.46l24.41-24.41c16.73,16.73,10.8,47.36-18.13,93.66-23.73,37.94-60.6,82.66-103.85,125.91s-88,80.13-125.91,103.85C157.6,434.93,134.59,444,117.4,444Z"/></g></g></svg>