<svg xmlns="http://www.w3.org/2000/svg" xmlns:xlink="http://www.w3.org/1999/xlink" viewBox="0 0 2498.5 2339.4"><defs><style>.cls-1{isolation:isolate;}.cls-2,.cls-57{opacity:0.35;}.cls-11,.cls-12,.cls-14,.cls-2,.cls-42,.cls-52,.cls-53,.cls-57,.cls-60,.cls-61,.cls-69,.cls-70,.cls-9{mix-blend-mode:screen;}.cls-3{fill:url(#radial-gradient);}.cls-4{fill:url(#radial-gradient-2);}.cls-10,.cls-11,.cls-18,.cls-23,.cls-41,.cls-5,.cls-64,.cls-65,.cls-68{opacity:0.5;}.cls-10,.cls-16,.cls-18,.cls-20,.cls-21,.cls-23,.cls-25,.cls-26,.cls-28,.cls-33,.cls-35,.cls-36,.cls-37,.cls-38,.cls-41,.cls-5,.cls-55,.cls-56,.cls-62,.cls-64,.cls-65,.cls-66,.cls-68,.cls-7{mix-blend-mode:multiply;}.cls-5{fill:url(#radial-gradient-3);}.cls-10,.cls-11,.cls-57,.cls-6,.cls-7,.cls-9{fill:#e0a326;}.cls-7{opacity:0.54;}.cls-8{fill:url(#radial-gradient-4);}.cls-12{fill:url(#radial-gradient-5);}.cls-13{fill:url(#radial-gradient-6);}.cls-14{fill:url(#radial-gradient-7);}.cls-15{fill:url(#radial-gradient-8);}.cls-16,.cls-20,.cls-21,.cls-33,.cls-35,.cls-36,.cls-37,.cls-38,.cls-55,.cls-62,.cls-66{opacity:0.25;}.cls-16{fill:url(#radial-gradient-9);}.cls-17{fill:url(#radial-gradient-10);}.cls-18{fill:url(#radial-gradient-11);}.cls-19,.cls-32,.cls-59{opacity:0.34;mix-blend-mode:color-burn;}.cls-19{fill:url(#radial-gradient-12);}.cls-20{fill:url(#radial-gradient-13);}.cls-21{fill:url(#radial-gradient-14);}.cls-22{fill:url(#radial-gradient-15);}.cls-23{fill:url(#radial-gradient-16);}.cls-24{fill:url(#radial-gradient-17);}.cls-25,.cls-28{opacity:0.6;}.cls-25{fill:url(#radial-gradient-18);}.cls-27{fill:url(#radial-gradient-19);}.cls-28{fill:url(#radial-gradient-20);}.cls-29{fill:url(#radial-gradient-21);}.cls-30{fill:url(#radial-gradient-22);}.cls-31{fill:url(#radial-gradient-23);}.cls-32{fill:url(#radial-gradient-24);}.cls-34{fill:url(#radial-gradient-25);}.cls-35{fill:url(#radial-gradient-26);}.cls-36{fill:url(#radial-gradient-27);}.cls-37{fill:url(#radial-gradient-28);}.cls-38{fill:url(#radial-gradient-29);}.cls-39{fill:url(#radial-gradient-30);}.cls-40{fill:url(#radial-gradient-31);}.cls-41{fill:url(#radial-gradient-32);}.cls-43{fill:url(#radial-gradient-33);}.cls-44{fill:url(#radial-gradient-34);}.cls-45{fill:url(#radial-gradient-35);}.cls-46{fill:url(#radial-gradient-36);}.cls-47{fill:url(#radial-gradient-37);}.cls-48{fill:url(#radial-gradient-38);}.cls-49{fill:url(#radial-gradient-39);}.cls-50{fill:url(#radial-gradient-40);}.cls-51{fill:url(#radial-gradient-41);}.cls-52{fill:url(#radial-gradient-42);}.cls-53{fill:url(#radial-gradient-43);}.cls-54{fill:url(#radial-gradient-44);}.cls-55{fill:url(#radial-gradient-45);}.cls-56{fill:url(#radial-gradient-46);}.cls-58{fill:url(#radial-gradient-47);}.cls-59{fill:url(#radial-gradient-48);}.cls-60{fill:url(#radial-gradient-49);}.cls-61{fill:url(#radial-gradient-50);}.cls-62{fill:url(#radial-gradient-51);}.cls-63{fill:url(#radial-gradient-52);}.cls-64{fill:url(#radial-gradient-53);}.cls-65{fill:url(#radial-gradient-54);}.cls-66{fill:url(#radial-gradient-55);}.cls-67{fill:url(#radial-gradient-56);}.cls-68{fill:url(#radial-gradient-57);}.cls-69{fill:url(#radial-gradient-58);}.cls-70{fill:url(#radial-gradient-59);}</style><radialGradient id="radial-gradient" cx="1120.25" cy="6.44" r="2478.55" gradientTransform="matrix(0.92, -0.35, 0.18, 0.74, 319.74, 2208.37)" gradientUnits="userSpaceOnUse"><stop offset="0" stop-color="#d1e1ee"/><stop offset="0.34" stop-color="#8ee1ee"/><stop offset="0.94" stop-color="#732fa4"/></radialGradient><radialGradient id="radial-gradient-2" cx="1533.89" cy="2779.55" r="2478.63" gradientTransform="matrix(0.98, 0.11, -0.18, 0.75, 244.33, -395.35)" xlink:href="#radial-gradient"/><radialGradient id="radial-gradient-3" cx="1335.85" cy="1113.04" r="238.22" gradientUnits="userSpaceOnUse"><stop offset="0" stop-color="#f20074"/><stop offset="0.14" stop-color="#ed0376"/><stop offset="0.31" stop-color="#df0b7d"/><stop offset="0.49" stop-color="#c71887"/><stop offset="0.67" stop-color="#a62a96"/><stop offset="0.87" stop-color="#7b42a9"/><stop offset="0.9" stop-color="#7446ac"/></radialGradient><radialGradient id="radial-gradient-4" cx="432.53" cy="318.56" r="748.36" xlink:href="#radial-gradient-3"/><radialGradient id="radial-gradient-5" cx="493.52" cy="-344.92" r="498.98" gradientTransform="translate(-32.89 809.28) rotate(-8.19)" gradientUnits="userSpaceOnUse"><stop offset="0.05" stop-color="#e0a326"/><stop offset="0.41" stop-color="#e0a227" stop-opacity="0.99"/><stop offset="0.55" stop-color="#df9e2b" stop-opacity="0.96"/><stop offset="0.64" stop-color="#de9833" stop-opacity="0.91"/><stop offset="0.71" stop-color="#dd8f3e" stop-opacity="0.83"/><stop offset="0.78" stop-color="#db844c" stop-opacity="0.73"/><stop offset="0.84" stop-color="#d8755d" stop-opacity="0.61"/><stop offset="0.89" stop-color="#d56471" stop-opacity="0.47"/><stop offset="0.93" stop-color="#d25089" stop-opacity="0.3"/><stop offset="0.98" stop-color="#ce3ba3" stop-opacity="0.12"/><stop offset="1" stop-color="#cc2db4" stop-opacity="0"/></radialGradient><radialGradient id="radial-gradient-6" cx="1305.65" cy="671.82" r="457.22" gradientUnits="userSpaceOnUse"><stop offset="0.06" stop-color="#faf1d6"/><stop offset="0.24" stop-color="#f8edd3"/><stop offset="0.42" stop-color="#f2e1ca"/><stop offset="0.61" stop-color="#e8ccba"/><stop offset="0.8" stop-color="#dab0a5"/><stop offset="0.95" stop-color="#cc928e"/></radialGradient><radialGradient id="radial-gradient-7" cx="1138.54" cy="590.3" r="61.31" xlink:href="#radial-gradient-6"/><radialGradient id="radial-gradient-8" cx="1249.29" cy="401.67" r="584.46" gradientUnits="userSpaceOnUse"><stop offset="0.06" stop-color="#66b0d8"/><stop offset="1" stop-color="#3f1f7d"/></radialGradient><radialGradient id="radial-gradient-9" cx="1475.57" cy="958.8" r="70.63" gradientUnits="userSpaceOnUse"><stop offset="0" stop-color="#b10058"/><stop offset="1" stop-color="#5c2d7d" stop-opacity="0.6"/></radialGradient><radialGradient id="radial-gradient-10" cx="4142.81" cy="-3336.53" r="110.04" gradientTransform="matrix(0.32, -0.95, 0.95, 0.32, 3270.75, 5957.3)" xlink:href="#radial-gradient-3"/><radialGradient id="radial-gradient-11" cx="1425.55" cy="913.96" r="103.75" xlink:href="#radial-gradient-3"/><radialGradient id="radial-gradient-12" cx="1281.26" cy="402" r="571.47" xlink:href="#radial-gradient-8"/><radialGradient id="radial-gradient-13" cx="739.53" cy="329.31" r="1564.04" xlink:href="#radial-gradient-9"/><radialGradient id="radial-gradient-14" cx="-14.23" cy="446.48" r="1960.24" xlink:href="#radial-gradient-9"/><radialGradient id="radial-gradient-15" cx="1101.61" cy="801.07" r="110.04" xlink:href="#radial-gradient-3"/><radialGradient id="radial-gradient-16" cx="1101.64" cy="821.02" r="99.76" xlink:href="#radial-gradient-3"/><radialGradient id="radial-gradient-17" cx="1191.94" cy="1005.69" r="206.75" gradientTransform="translate(-117.07 -32.81) scale(1.02 1.04)" xlink:href="#radial-gradient-8"/><radialGradient id="radial-gradient-18" cx="1146.21" cy="995.42" r="83.85" xlink:href="#radial-gradient-8"/><radialGradient id="radial-gradient-19" cx="1634.33" cy="1080.72" r="206.75" gradientTransform="matrix(1.05, 0.03, -0.03, 1.24, -265.11, -327.18)" xlink:href="#radial-gradient-8"/><radialGradient id="radial-gradient-20" cx="1597.75" cy="1073.41" r="83.85" gradientTransform="matrix(1.03, 0.03, -0.03, 1.18, -145.69, -285.01)" xlink:href="#radial-gradient-8"/><radialGradient id="radial-gradient-21" cx="881.02" cy="593.19" r="241.75" xlink:href="#radial-gradient-8"/><radialGradient id="radial-gradient-22" cx="1656.77" cy="115.16" r="379.05" xlink:href="#radial-gradient-8"/><radialGradient id="radial-gradient-23" cx="1262.32" cy="402.67" r="584.45" xlink:href="#radial-gradient-8"/><radialGradient id="radial-gradient-24" cx="1262.6" cy="400.06" r="556.33" xlink:href="#radial-gradient-8"/><radialGradient id="radial-gradient-25" cx="1367.12" cy="680.55" r="112.56" xlink:href="#radial-gradient-9"/><radialGradient id="radial-gradient-26" cx="1501.01" cy="1003.43" r="40.75" xlink:href="#radial-gradient-9"/><radialGradient id="radial-gradient-27" cx="1451.76" cy="850.13" r="58.9" xlink:href="#radial-gradient-9"/><radialGradient id="radial-gradient-28" cx="1159.74" cy="931.69" r="41.1" xlink:href="#radial-gradient-9"/><radialGradient id="radial-gradient-29" cx="1217.14" cy="811.83" r="51.86" xlink:href="#radial-gradient-9"/><radialGradient id="radial-gradient-30" cx="1122.69" cy="657.02" r="42.95" xlink:href="#radial-gradient-9"/><radialGradient id="radial-gradient-31" cx="1526.55" cy="504.17" r="45.76" xlink:href="#radial-gradient-9"/><radialGradient id="radial-gradient-32" cx="1298.74" cy="457.36" r="345.48" xlink:href="#radial-gradient-8"/><radialGradient id="radial-gradient-33" cx="1146.29" cy="357.22" r="498.35" xlink:href="#radial-gradient-8"/><radialGradient id="radial-gradient-34" cx="1146.29" cy="357.22" r="498.35" xlink:href="#radial-gradient-8"/><radialGradient id="radial-gradient-35" cx="1146.29" cy="357.22" r="498.35" xlink:href="#radial-gradient-8"/><radialGradient id="radial-gradient-36" cx="1146.29" cy="357.22" r="498.34" xlink:href="#radial-gradient-8"/><radialGradient id="radial-gradient-37" cx="1146.29" cy="357.22" r="498.35" xlink:href="#radial-gradient-8"/><radialGradient id="radial-gradient-38" cx="1146.28" cy="357.22" r="498.36" xlink:href="#radial-gradient-8"/><radialGradient id="radial-gradient-39" cx="1146.3" cy="357.22" r="498.34" xlink:href="#radial-gradient-8"/><radialGradient id="radial-gradient-40" cx="1146.3" cy="357.22" r="498.34" xlink:href="#radial-gradient-8"/><radialGradient id="radial-gradient-41" cx="1146.28" cy="357.22" r="498.36" xlink:href="#radial-gradient-8"/><radialGradient id="radial-gradient-42" cx="1283.13" cy="648.68" r="98.23" xlink:href="#radial-gradient-6"/><radialGradient id="radial-gradient-43" cx="1283.13" cy="648.68" r="98.23" xlink:href="#radial-gradient-6"/><radialGradient id="radial-gradient-44" cx="1090.32" cy="142.82" r="560.74" gradientTransform="translate(125.18 -353.52) rotate(16.79)" xlink:href="#radial-gradient-6"/><radialGradient id="radial-gradient-45" cx="1183.2" cy="154.62" r="479.04" xlink:href="#radial-gradient-9"/><radialGradient id="radial-gradient-46" cx="1114.37" cy="86.45" r="442.96" gradientUnits="userSpaceOnUse"><stop offset="0.06" stop-color="#66b0d8"/><stop offset="0.89" stop-color="#93fcce"/></radialGradient><radialGradient id="radial-gradient-47" cx="1127.47" cy="86.45" r="435.24" xlink:href="#radial-gradient-8"/><radialGradient id="radial-gradient-48" cx="1127.65" cy="102.3" r="407.59" xlink:href="#radial-gradient-8"/><radialGradient id="radial-gradient-49" cx="1169.69" cy="71.83" r="304.61" xlink:href="#radial-gradient-6"/><radialGradient id="radial-gradient-50" cx="1169.69" cy="71.83" r="304.61" xlink:href="#radial-gradient-6"/><radialGradient id="radial-gradient-51" cx="1130.99" cy="24.12" r="194.53" xlink:href="#radial-gradient-9"/><radialGradient id="radial-gradient-52" cx="1122.56" cy="3.07" r="199.94" xlink:href="#radial-gradient-3"/><radialGradient id="radial-gradient-53" cx="1122.82" cy="3.32" r="199.61" xlink:href="#radial-gradient-3"/><radialGradient id="radial-gradient-54" cx="1197.9" cy="2.84" r="140.08" xlink:href="#radial-gradient-3"/><radialGradient id="radial-gradient-55" cx="1406.96" cy="137.9" r="169.12" xlink:href="#radial-gradient-9"/><radialGradient id="radial-gradient-56" cx="1412.11" cy="134.34" r="168.35" xlink:href="#radial-gradient-3"/><radialGradient id="radial-gradient-57" cx="1415.31" cy="138.67" r="163.48" xlink:href="#radial-gradient-3"/><radialGradient id="radial-gradient-58" cx="1405.58" cy="134.32" r="156.63" xlink:href="#radial-gradient-3"/><radialGradient id="radial-gradient-59" cx="1415.72" cy="132.98" r="103.72" xlink:href="#radial-gradient-3"/></defs><title>austro</title><g class="cls-1"><g id="Capa_2" data-name="Capa 2"><g id="Capa_1-2" data-name="Capa 1"><g class="cls-2"><path class="cls-3" d="M2323.12,1005.8c-57.55-95.81-268.68-53.87-435.66-1.82-2.27.71-4.55,1.42-6.84,2.15-72.41,22.85-150,51.71-231.14,85.79,11.06,7,21.92,14.11,32.27,21.91,73.06-30.13,143-55.87,208.67-76.58l6.75-2.12c213.74-66.63,362.43-71.3,397.76-12.51s-39,187.21-198.9,343.5c-169.68,165.9-417.78,349.54-698.59,517.09s-560.68,298.73-787.27,369.52c-213.74,66.63-362.43,71.31-397.76,12.51s39-187.21,198.89-343.5c52.06-50.89,111.51-103.45,177-156.7-1.46-7.27-2.62-14.61-3.53-22q-1.51-7.44-2.69-15c-72,57.9-137.19,115.11-193.74,170.4-124.89,122.1-261.69,287.75-204.13,383.56s268.69,53.87,435.67,1.82l6.84-2.15c228-72,507.36-203.36,787.53-370.54,283-168.85,533.27-354.18,704.75-521.83C2243.9,1267.26,2380.69,1101.6,2323.12,1005.8Z"/></g><g class="cls-2"><path class="cls-4" d="M2498.27,1561.54c-8-112.77-216.39-171.11-389.77-200.19l-7.11-1.18c-75.31-12.36-158-21.65-246.24-27.84,6.75,11.32,13.23,22.74,19,34.49,79.2,6.09,153.65,14.73,221.9,25.93,2.35.38,4.69.78,7,1.17,221.93,37.22,357.36,100.76,362.3,170s-120.13,151.32-334.53,219.63c-227.57,72.52-533.52,125.33-861.48,148.7s-638.52,14.31-873.87-25C173.54,1870,38.1,1806.44,33.17,1737.23S153.29,1585.92,367.7,1517.6c69.8-22.25,147-42.63,229.94-60.88q3-10.85,6.84-21.47,2-7.41,4.39-14.73C518,1440,433.52,1462,357.67,1486.14,190.18,1539.51-7.8,1626.8.24,1739.57S216.63,1910.68,390,1939.75l7.11,1.18c237.17,38.93,547.36,47.53,874.57,24.21,330.49-23.55,639.16-76.89,869.15-150.17C2308.33,1761.6,2506.31,1674.31,2498.27,1561.54Z"/></g><path class="cls-5" d="M1319,1000.15c-71.07-9.13-243.2,3.67-293.08,91.78s198.32,47.87,284.77,62.84,194.52,119.7,310.89,49.87S1500.18,1023.43,1319,1000.15Z"/><path class="cls-6" d="M1062.64,1074.73,966.9,732.82a14.72,14.72,0,0,1-6.15,2.19c-5.21.65-10.22.42-14.3-1.77l97.11,346.83a9.91,9.91,0,0,0,19.08-5.34Z"/><path class="cls-6" d="M937.85,638.13a5.94,5.94,0,0,1,1.94-2.13L819.1,205A9.9,9.9,0,0,0,800,210.31L928.08,667.62C928.92,657.38,933.08,646.92,937.85,638.13Z"/><path class="cls-7" d="M932.6,649.36,806.5,199c-.07-.23-.07-.46-.12-.69a9.87,9.87,0,0,0-6.35,12L928.08,667.62A65.25,65.25,0,0,1,932.6,649.36Z"/><path class="cls-7" d="M1062.76,1075.41c-.18.06-.34.15-.52.2a9.62,9.62,0,0,1-2.68.37,9.9,9.9,0,0,1-9.53-7.23L956.66,735.3a20.45,20.45,0,0,1-10.21-2.06l97.11,346.83a9.88,9.88,0,0,0,19.2-4.66Z"/><path class="cls-8" d="M823.92,218.26s-35.42,80.09-186.36,80.09-284.93-4.62-375.8,157.09L343.39,768.1s70.85-150.94,198.68-152.48,294.17,27.73,368.1-83.17Z"/><circle class="cls-6" cx="569.52" cy="454.35" r="96.49" transform="translate(-16.59 887.09) rotate(-75.02)"/><path class="cls-9" d="M494.11,452.86c-5.48-7.57-5.88-19.53-4.41-27.85,3.12-17.61,15.8-31.77,29.59-42.29,43.09-32.87,99.24-7.93,106.58,12S614.15,428.57,585.15,426s-45.66,31.6-65,34.49c-7.39,1.1-15.15,1-21.64-3.36A17.15,17.15,0,0,1,494.11,452.86Z"/><path class="cls-10" d="M656.67,427.51l.06.4c7.43,51.6-27.14,99.26-77.22,106.47-46.34,6.67-89.71-23.66-101.8-69.13,7.62,51.37,54.11,87.13,104,80S666.39,490.33,659,438.73A97.76,97.76,0,0,0,656.67,427.51Z"/><path class="cls-11" d="M522.29,386.58c-.7-1.33.63-3.41,3-4.65s4.81-1.18,5.51.15-.62,3.41-3,4.65S523,387.91,522.29,386.58Zm-1.5,7.53c1.42-.76,2.23-2,1.8-2.83s-1.93-.85-3.35-.09-2.23,2-1.8,2.83S519.37,394.87,520.79,394.11Zm17.45-9.48c1.43-.76,2.23-2,1.8-2.83s-1.92-.85-3.35-.09-2.23,2-1.8,2.83S536.82,385.39,538.24,384.63Zm67,7.06c.22-1.49,2.52-2.38,5.14-2s4.57,1.9,4.36,3.39-2.52,2.38-5.15,2S605.07,393.17,605.29,391.69Zm14,7.87c1.59.24,3-.31,3.12-1.21s-1-1.83-2.64-2.06-3,.31-3.13,1.21S617.7,399.33,619.3,399.56Z"/><path class="cls-12" d="M691,400c14.3-19.31,27.89-43.23,18.38-54.89-10.1-12.4-39.15-2.16-61.74,8.62l-.93.44c-9.79,4.72-20.19,10.39-31,16.87,1.71.76,3.39,1.55,5,2.44,9.73-5.75,19.12-10.83,28-15.1l.92-.44c28.91-13.79,49.88-17.48,56.08-9.87s-1.56,26.83-20.47,51.75h-.06c-10.92-.21-22.82.16-35.45,1.08,1.19,1.46,2.34,2.95,3.39,4.5,10-.67,19.47-.91,28.39-.84-20.64,26.07-50.69,55.6-85.38,83.7-3.33,2.7-6.67,5.3-10,7.91-2.39.54-4.74,1.11-7.15,1.64-44.28,9.63-86.8,14.61-120.38,14.27,6-7.75,12.88-15.8,20.51-24.07-.35-1-.67-2-.95-3-.24-.68-.47-1.37-.68-2.06-9,9.66-17.09,19.1-24,28.08-.26.33-.51.68-.77,1-31.05-1-50.76-7.12-52.83-16.62-2.11-9.71,13.93-23.88,42.91-37.93,9.43-4.58,19.95-9,31.33-13.31.13-1.07.31-2.13.53-3.18.09-.73.2-1.46.32-2.18-12.48,4.61-24,9.45-34.24,14.42-22.64,11-48.9,27.37-45.47,43.18,3.21,14.72,30,19.21,54,20.23-13.73,18.93-26.09,41.6-16.91,52.86,10.11,12.4,39.16,2.15,61.75-8.62l.92-.45c27.73-13.34,60.35-34.38,93-59.85,43.16-9.89,82.68-22.94,111.93-37.12,22.63-11,48.9-27.38,45.46-43.19C742.26,405.46,715.07,401,691,400ZM492.13,556.67c-28.92,13.8-49.88,17.49-56.09,9.88-6-7.3,1.22-25.79,19-49.71h.56c33.71.67,76.76-4.25,121.65-13.83C547.16,525.79,517.48,544.56,492.13,556.67ZM698,459.22c-26.75,13-62.19,25-101.21,34.51.77-.62,1.54-1.2,2.31-1.82,36.19-29.32,67.5-60.26,88.37-87.27,31.4.9,51.35,7.09,53.43,16.65S726.93,445.17,698,459.22Z"/><path class="cls-13" d="M1205.9,451.15s-16.59,107.09-90.5,146.31-120.67,28.66-120.67,28.66-31.67-40.73-69.38-12.07-42.23,42.23-25.64,78.43,57.31,52.8,98,15.09c0,0,123.68,31.67,178-10.56S1220,636.4,1220,636.4l7,98.32s-107.09,36.2-137.26,95,75.42,215.7,75.42,215.7-69.39,1.5-89,34.69-10.56,36.2,37.71,37.7,131.23-13.57,152.34-33.18-61.15-130.46-49.08-174.2,68.69-53.56,112.43-61.1,72.4,86,98.05,132.73S1488.17,1087,1488.17,1087s-73.08,3.62-89.67,53.4,158.84,24.24,186-19.5-49.07-69.35-67.87-383.12c-7-116.17-25.64-147.81-25.64-147.81s135.75-55.81,167.42-126.7S1675,353.11,1675,353.11s51.29-51.29,45.25-101.06-19.6,9.05-19.6,9.05,3-64.86-34.7-83-37.7,86-37.7,86-4.53-28.65-21.12-25.64-6,70.9,19.61,99.55c0,0-18.1,111.62-181,119.16,0,0-43.75-48.26-98-46.76S1205.9,451.15,1205.9,451.15Z"/><path class="cls-14" d="M1085.13,627.08S1172.69,591.18,1192,522c0,0-7,106-99.81,136.6C1092.14,658.6,1094.76,643.71,1085.13,627.08Z"/><path class="cls-15" d="M1269.28,496.93c-3.25,66,6.6,130.65,21.41,194.79,5.74,24.84,44,14.32,38.21-10.53-14.06-60.87-23.08-121.65-20-184.26,1.26-25.49-38.36-25.42-39.62,0Z"/><path class="cls-16" d="M1537.77,917.58c-9.23,7.09-23.86,10.66-33.76,12.32-.21-.62-.41-1.27-.63-1.88a.42.42,0,0,0,0-.1,55,55,0,0,0-16.08-23c-.52-.45-1.08-.83-1.61-1.26a59,59,0,0,0-7.71-5.18,60,60,0,0,0-6.12-3,55.76,55.76,0,0,0-22.77-4.65,49.47,49.47,0,0,0-6.67.57,45.15,45.15,0,0,0-12.75,4,43.32,43.32,0,0,0-11.31,8,45.46,45.46,0,0,0-4.88,5.56c-1.51,2-2.87,4-4.12,6a67.93,67.93,0,0,0-7,14.31c9,19.21,17.25,38.35,25.26,52.94,6.37,11.63,13.32,24,20.17,35.92,16.6,8.93,30.81,8.78,30.81,8.78,9.57-1,16.67-5,21.87-10.9.14-.16.31-.3.45-.46a36.6,36.6,0,0,0,2.45-3.39c.32-.48.66-.93,1-1.43.68-1.14,1.29-2.34,1.87-3.57.3-.62.59-1.23.86-1.87.53-1.24,1-2.5,1.44-3.81.23-.71.45-1.43.66-2.15.39-1.33.75-2.66,1.06-4.05.17-.76.3-1.54.44-2.32.27-1.42.53-2.84.72-4.3.09-.73.14-1.49.22-2.22.22-2.19.37-4.4.45-6.66,12.09.58,26.84-6.5,36.71-12.25C1545,952.58,1541.31,936.06,1537.77,917.58Z"/><path class="cls-6" d="M1535.85,907.3c-13.91,13.3-46.68,15.7-46.68,15.7s-12.09,26.31,5.69,43.37c12.72,12.21,38.12-.31,51.57-8.43C1542.8,942.8,1539.23,926,1535.85,907.3Z"/><path class="cls-17" d="M1474.21,1018.52s-31.32.44-55.34-29.24-34.21-56.1-9.83-88.66,76.45-18,89.9,19S1514.88,1014.42,1474.21,1018.52Z"/><path class="cls-18" d="M1498.94,919.66c-13.45-37-65.53-51.6-89.9-19q-2.26,3-4.12,6c26.44-19.37,68.46-4.23,80.35,28.47,8.91,24.51,12.92,58.05,2.85,79.15C1514,999.45,1510.61,951.77,1498.94,919.66Z"/><path class="cls-19" d="M1328.9,681.19c-14.06-60.87-23.08-121.65-20-184.26.57-11.5-7.19-17.75-16-18.86,3.1,3.16,5,7.62,4.75,13.5-3.08,62.61,5.94,123.4,20,184.27,3.62,15.68-10.26,25.63-22.44,24.61C1306.89,713,1333.78,702.34,1328.9,681.19Z"/><path class="cls-6" d="M1516.62,737.73c0-.36,0-.71-.07-1.08-2.59,0-5.59,0-9,.24a161.88,161.88,0,0,0-39.51,8,181.08,181.08,0,0,0-36.92,17.19,107.86,107.86,0,0,0-28.8,23.57,181.21,181.21,0,0,0-24.15,32.79,162,162,0,0,0-15.62,37.16c-.59,2.18-1.07,4.19-1.47,6.06q2,1.88,3.84,4c1.06-2.27,2.27-4.87,3.67-7.79A219.92,219.92,0,0,1,1388,824.73a190.84,190.84,0,0,1,25.09-28.33c7.57-7,13.07-11,13.07-11s5-4.59,13.37-10.63a190.2,190.2,0,0,1,32.74-19,218.29,218.29,0,0,1,36.27-12.51c3.1-.8,5.87-1.46,8.28-2C1516.77,740.05,1516.69,738.91,1516.62,737.73Z"/><path class="cls-6" d="M1315.2,834.74a279.66,279.66,0,0,1-25.78-21.8c-3.4-3.07-5.9-6-7.81-7.85l-2.92-3-3-2.93c-1.86-1.9-4.78-4.4-7.86-7.8a279.41,279.41,0,0,1-21.8-25.77c-7.21-10-13.9-20.45-18.58-28.59l-1.18-2c-.94.33-2.84,1-5.53,2,.26.86.53,1.74.84,2.67,3,9.19,8.33,21,14.63,32.3a238.8,238.8,0,0,0,20.16,29.45c3,3.9,5.82,6.81,7.66,9l3,3.37,3.37,3c2.19,1.83,5.1,4.69,9,7.65a238.24,238.24,0,0,0,29.46,20.15c4.07,2.26,8.16,4.33,12.21,6.28l8.54-1.49a28.39,28.39,0,0,1,7.1-.3C1330,844.93,1322.48,840,1315.2,834.74Z"/><path class="cls-20" d="M1218.34,663.16c-.85.09-3.45-18.65-5-37.52s-2.24-37.8-2.24-37.8,0-19,1.1-37.85,3-37.71,3.89-37.65.38,18.92.5,37.76.72,37.65.72,37.65-.09,18.82.41,37.65S1219.2,663.08,1218.34,663.16Zm-1.95-29.22c-1.74-10.69-3.49-21.38-3.49-21.38l-4.74-21.15c-2.35-10.59-4.63-21.22-5.48-21.1s-.1,11,1.15,21.83,3,21.6,3,21.6,2.4,10.63,5.29,21.15,6.25,20.88,7.08,20.68S1218.16,644.64,1216.39,633.94ZM1414,545a79.08,79.08,0,0,1-4.06-18.7,70.52,70.52,0,0,1-.33-8.64,71.51,71.51,0,0,1,.27-8.64,79.66,79.66,0,0,1,3.94-18.72c4.29-13.49,13.61-24.65,13-25.18-.56-.69-11.4,9.7-17.08,23.6a78.37,78.37,0,0,0-5.52,19.64,72.33,72.33,0,0,0-.8,9.32,73.75,73.75,0,0,0,.86,9.32,78.94,78.94,0,0,0,5.65,19.61c5.77,13.86,16.68,24.18,17.24,23.48C1427.8,569.6,1418.4,558.5,1414,545Zm57.59,41.4c-4.94-1.41-9.62-3.29-9.62-3.29s-4.91-1.18-9.75-2.9-9.58-3.91-10.06-3.2,3.51,4.33,8.17,7.16a35.86,35.86,0,0,0,20.52,6.55c5.44.39,10.8-.25,10.81-1.1S1476.54,587.88,1471.62,586.44Zm-94.36,214.37a122.77,122.77,0,0,0-7.74,13.87,122.52,122.52,0,0,0-4.41,15.26c-1.68,7.77-2.17,15.66-1.34,15.78s2.87-7.37,5.56-14.56,5.92-14.09,5.92-14.09,2.58-7.16,5.85-14.12,7.13-13.68,6.43-14.19S1381.6,794.15,1377.26,800.81Zm-61,25.26c-8.89-5.8-17.1-12.43-17.1-12.43s-8.68-6-16.75-12.89-15.56-14.52-16.22-14,5.66,9.33,13.21,17.16a176.91,176.91,0,0,0,16,14.67,176.37,176.37,0,0,0,18.6,11.25c9.65,5,19.87,8.61,20.2,7.82S1325.15,831.93,1316.31,826.07ZM1205.39,929.43a251.84,251.84,0,0,1,13.47-24.63c4-5.86,9-11,8.49-11.71s-6.75,3.44-11.9,8.93a49.66,49.66,0,0,0-14.24,26c-1.84,7.3-1.94,14.76-1.09,14.83S1202.61,935.94,1205.39,929.43Zm74.27-425.26c-9.19.32-18.28.25-18.28.25s-9.07.68-18.16.54-18.18-1.34-18.38-.5,8.72,3.68,18,4.88a156.75,156.75,0,0,0,18.68,1.28s9.34-.63,18.5-2.08,18.22-3.28,18.13-4.12S1288.84,503.88,1279.66,504.17Zm102.83-20.57a153.28,153.28,0,0,1-14.69,5.9,152.82,152.82,0,0,1-14.83,5.57c-7.58,2.42-15.51,3.9-15.44,4.76s8.29.91,16.46-.49a67.27,67.27,0,0,0,30.63-11.9c7-4.49,13-10.09,12.48-10.76S1389.71,480.26,1382.49,483.6Zm-114,297.85c-8.66-7.39-16.37-15.61-16.37-15.61a126.86,126.86,0,0,1-14.63-17.05c-6.7-9.12-10.7-19.82-11.2-19.66s2.48,11.42,8.75,21.27a116.14,116.14,0,0,0,14.12,18.33,192.58,192.58,0,0,0,17.49,15c9.14,6.94,18.66,13.26,19,12.83S1277.06,788.9,1268.47,781.45Z"/><path class="cls-6" d="M1661.06,455.44a84.34,84.34,0,0,1-24.23-2.17,277.42,277.42,0,0,1-20.56-6.88,83.82,83.82,0,0,1-20.65-12.84,99.4,99.4,0,0,1-16.82-18.61c-.34-.48-.65-.94-1-1.4-1.6,1.29-3.23,2.57-4.93,3.84.06.18.11.34.17.51a77.34,77.34,0,0,0,14.28,23.95,87.34,87.34,0,0,0,22,18.13,52.18,52.18,0,0,0,24.87,8.32,86.38,86.38,0,0,0,21.76-.15c.85-1.63,1.7-3.27,2.44-4.92,1.2-2.69,2.21-5.25,3.28-7.84C1661.47,455.39,1661.27,455.42,1661.06,455.44Z"/><path class="cls-6" d="M1505.1,536.2a74.56,74.56,0,0,1-7.21-10.75l-1.91-3a76.19,76.19,0,0,1-4.49-8.37,104.49,104.49,0,0,1-8.36-28.32c-1.93-11.63-1.84-23.54-1.68-32.23-2.16.35-4.27.73-6.49,1a123,123,0,0,0-3.49,32.21,107,107,0,0,0,5.88,33,87.68,87.68,0,0,0,4.41,10.45l2,3.84s.89,1.31,2.53,3.55a75.62,75.62,0,0,0,7.41,8.71,90.63,90.63,0,0,0,12.1,10.44,99.34,99.34,0,0,0,15.72,9,85.3,85.3,0,0,0,11.61,4.07q5.56-2.92,11.53-6.21a93.62,93.62,0,0,1-17.74-8.25A84.22,84.22,0,0,1,1505.1,536.2Z"/><path class="cls-6" d="M1133.49,604.05a139.27,139.27,0,0,1,10.86,29.68c.89,4.19,1.65,7.66,2,10.14s.6,3.86.6,3.86l.72,3.83c.54,2.43,1,6,1.5,10.19a115.38,115.38,0,0,1-.91,31.27,98.26,98.26,0,0,1-5.51,19.66,119.06,119.06,0,0,0,12-4,92.64,92.64,0,0,0,4.93-13,116.73,116.73,0,0,0,4.75-34.8c-.14-4.8-.3-8.83-.67-11.61s-.48-4.4-.48-4.4-.35-1.57-1-4.3-1.76-6.58-3.2-11.16a135.29,135.29,0,0,0-15.38-31.29,124.87,124.87,0,0,0-9.72-12.77c-2.51,2-5.11,3.8-7.78,5.59A146.77,146.77,0,0,1,1133.49,604.05Z"/><path class="cls-6" d="M1071.3,677.42s-.06,4.74-.94,11.86a130.39,130.39,0,0,1-6,25.79c-.3,1-.68,1.87-1,2.82,4,.31,8.12.57,12.28.75a124.36,124.36,0,0,0,9.71-26.58,115.61,115.61,0,0,0,2.43-13.34,114.21,114.21,0,0,0-.32-13.55,123.28,123.28,0,0,0-5.75-28.9,101.11,101.11,0,0,0-9-20.24c-2.55.86-5.12,1.76-7.56,2.51a135.14,135.14,0,0,1,7.06,47C1072,672.73,1071.3,677.42,1071.3,677.42Z"/><path class="cls-21" d="M1231.74,880.47c-2.38-2.85-4.94-5.71-7.65-8.49h0c-7.64-7.81-16.47-14.83-25.9-18.63a1.39,1.39,0,0,0,.06-.19,58.81,58.81,0,0,0,2-5.84c.14-.48.25-1,.37-1.44.41-1.63.75-3.26,1-4.91.08-.49.17-1,.24-1.46.28-2,.46-4,.54-6,0-.44,0-.87,0-1.3,0-1.66,0-3.31-.14-5,0-.54-.07-1.09-.12-1.63a57.27,57.27,0,0,0-.88-5.87c-.07-.31-.16-.61-.23-.92-.39-1.66-.85-3.3-1.39-4.9-.17-.53-.35-1.06-.55-1.58a48.76,48.76,0,0,0-2.32-5.4h0a44,44,0,0,0-25.73-22c-14.63-4.88-26.85-5.3-37.52-2.21-18.24,13.33-34.55,29.12-43.73,47-8.64,16.84-6.12,41.73,1.83,68.67a32.66,32.66,0,0,0,6.69,3.53c7.9,2.93,17.18,3.09,26.91,1.32A113.75,113.75,0,0,0,1154.76,893c3.79-1.87,7.46-4,11-6.11,14.34,4.22,34.48,14.16,50.28,37.48a41.71,41.71,0,0,1,1.07-13.93,57.13,57.13,0,0,1,16.8-27.19c-.66-.82-1.22-1.6-1.91-2.43Z"/><path class="cls-6" d="M1182.69,841.22c-35.56.71-35.6,33.36-35.6,33.36s41.59,0,69.09,41.66a33.63,33.63,0,0,1,1-5.79c3.54-12.84,11-22.69,20.75-30.48C1225.38,863,1204.76,840.78,1182.69,841.22Z"/><path class="cls-7" d="M1223.43,862.82c.51,7.08,0,16.13-4.43,23.26-8.51,13.74-28.8-12.44-28.8-12.44,8.09-4.92,12.19-16.43,14.27-26-6.92-4-14.26-6.53-21.78-6.38-35.56.71-35.6,33.36-35.6,33.36s41.59,0,69.09,41.66a33.63,33.63,0,0,1,1-5.79c3.54-12.84,11-22.69,20.75-30.48A164.47,164.47,0,0,0,1223.43,862.82Z"/><path class="cls-22" d="M1079,874.81s-10.29-29.58,10.29-61.74,42.44-50.16,81-37.3,41.16,66.88,10.29,91.32S1095.76,912.11,1079,874.81Z"/><path class="cls-23" d="M1196.08,797.78c.42,17.09-6.6,34.93-21,46.33-29.23,23.13-79.15,42.73-98.58,13.11a62.76,62.76,0,0,0,2.54,17.59c16.72,37.3,70.74,16.72,101.61-7.72C1201.86,850.3,1207.28,819.55,1196.08,797.78Z"/><path class="cls-24" d="M1114.86,1117.83c49.26,1.58,133.92-14.18,155.47-34.66,14.42-13.7-15.94-59.84-33.93-102.56-33.89,29.33-77.65,27.09-100.15,21.58,13.54,23.88,25.85,38.36,25.85,38.36s-65.71,3.24-85.72,37.9S1065.61,1116.26,1114.86,1117.83Z"/><path class="cls-6" d="M1114.86,1117.83c-43-1.37-55.46-4-44.68-27.59,6.83,8.7,26.17,16.84,77.22,12.91,61.34-4.72,101.72-29.2,123.36-46.88,4.09,12.22,4.93,21.81-.43,26.9C1248.78,1103.65,1164.12,1119.41,1114.86,1117.83ZM1236.4,980.61c-33.89,29.33-77.65,27.09-100.15,21.58,3.48,6.13,6.86,11.62,10,16.42,18.57,2.42,64,4.79,97.07-22.55C1240.9,990.9,1238.56,985.73,1236.4,980.61Z"/><path class="cls-25" d="M1186.37,1057.24c-.52.26-2.64-2.63-5.24-4.93a139.57,139.57,0,0,0-11.16-7.93c-3-1.69-6.46-2.74-6.38-3.31s3.84-.53,7.5.61a20.17,20.17,0,0,1,12.23,8.68C1185.6,1053.44,1186.88,1057,1186.37,1057.24Zm-.35-20.33a38.79,38.79,0,0,0-8.76-2.28,38.26,38.26,0,0,0-9,.94c-4.43,1-8.35,3.21-8.11,3.72s4.37-.62,8.54-.83a45.26,45.26,0,0,1,8.26.3,46.07,46.07,0,0,1,8.2,1c4.09.84,8,2.6,8.32,2.11S1190.24,1038.59,1186,1036.91Z"/><g class="cls-26"><path class="cls-6" d="M1168.11,1112s-.47-5.71-1.06-11.11l-2.82.4c-.21,5.34-.26,10.86-.26,10.86s.1,1.2.26,3c1.28-.15,2.55-.28,3.84-.45C1168.09,1113,1168.11,1112,1168.11,1112Z"/><path class="cls-6" d="M1187.56,1010s2.43,3.88,4.63,8c1-.16,2-.31,3-.49,0-.11-.07-.21-.1-.31a84.64,84.64,0,0,0-3.88-9.24s-1.24-2-3-4.52c-1.24.24-2.47.42-3.7.61Z"/><path class="cls-6" d="M1167.66,1012s1.65,3.93,3.66,8c1,0,2.1-.06,3.17-.11,0-.07,0-.15-.08-.22-1.43-4.53-2.87-9.05-2.87-9.05l-2.1-5c-1.23,0-2.42,0-3.62,0C1166.75,1009.06,1167.66,1012,1167.66,1012Z"/><path class="cls-6" d="M1214.21,1000.05s2,4.55,3.66,9.29c.17.48.33,1,.49,1.44.85-.35,1.69-.72,2.53-1.09-.06-.37-.12-.73-.19-1.1a83,83,0,0,0-2.63-10s-.81-1.87-2.09-4.36c-1.1.55-2.2,1-3.3,1.52C1213.61,998.22,1214.21,1000.05,1214.21,1000.05Z"/><path class="cls-6" d="M1117.89,1117.86v-.15s-.51-5.6-.7-11.26c0-.8,0-1.6-.07-2.39-.86,0-1.76,0-2.59-.06-.1.78-.19,1.57-.26,2.36-.54,5.43-.52,10.85-.51,11.43l1.1,0C1115.83,1117.86,1116.9,1117.84,1117.89,1117.86Z"/><path class="cls-6" d="M1232.35,983.83c-.77.6-1.53,1.27-2.32,1.84a87.21,87.21,0,0,1,4.37,8.42,47.75,47.75,0,0,1,3,6.43c1-.67,1.91-1.43,2.86-2.16a41,41,0,0,0-2.16-6.11A62.85,62.85,0,0,0,1232.35,983.83Z"/><path class="cls-6" d="M1146.5,1012a71.87,71.87,0,0,0,4.29,7.09c1.26.13,2.58.25,4,.35a88.14,88.14,0,0,1-4.53-9.19s-1.35-2.58-2.8-6c-1.29-.18-2.54-.38-3.76-.59A70.11,70.11,0,0,0,1146.5,1012Z"/><path class="cls-6" d="M1140.69,1110.6s-.3-3.25-.72-7l-3.24.18c-.13,3.72-.17,7-.17,7s.28,3.11.7,6.72c1.07,0,2.18-.13,3.27-.2C1140.65,1113.68,1140.69,1110.6,1140.69,1110.6Z"/><path class="cls-6" d="M1077.56,1099.88c.16-1.13.36-2.25.57-3.31-.75-.4-1.43-.81-2.08-1.23-.49,1.22-1,2.54-1.35,3.9a62.33,62.33,0,0,0-2.09,10.61s0,1.06,0,2.65a24.7,24.7,0,0,0,3.8,1.48c.13-2.28.3-3.88.3-3.88A81.58,81.58,0,0,1,1077.56,1099.88Z"/><path class="cls-6" d="M1095,1114.53s-.17-4.61-.33-9.23c0-1.17-.06-2.33-.09-3.43-.75-.14-1.55-.27-2.26-.43-.21,1.17-.41,2.43-.57,3.7-.63,4.66-.89,9.36-.89,9.36s0,.79.11,2c1.26.12,2.54.24,3.91.34C1094.9,1115.46,1095,1114.53,1095,1114.53Z"/><path class="cls-6" d="M1195.3,1107s-1.39-6.54-2.72-11.49c-.77.21-1.51.44-2.3.64.27,5.07.93,11.49.93,11.49s.29,1.38.73,3.33c1.24-.22,2.44-.48,3.67-.71C1195.43,1108.3,1195.3,1107,1195.3,1107Z"/><path class="cls-6" d="M1274,1074.19l-.12-.45a65.59,65.59,0,0,0-5.14-10.78c-.7-1.17-1.45-2.29-2.2-3.33-.61.47-1.29.95-1.93,1.43.53,1,1.05,2.13,1.54,3.25a81.55,81.55,0,0,1,3.79,10.69s1,2.69,2,6.26A14.45,14.45,0,0,0,1274,1074.19Z"/><path class="cls-6" d="M1252.65,1090.93a92.75,92.75,0,0,0-5.6-13c-.69-1.33-1.41-2.63-2.12-3.86-.68.39-1.42.78-2.12,1.17.52,1.27,1.06,2.58,1.58,3.9a117.17,117.17,0,0,1,4.29,13s.41,1.2.94,3.06c1.24-.52,2.49-1,3.66-1.56C1252.93,1092,1252.65,1090.93,1252.65,1090.93Z"/><path class="cls-6" d="M1227.73,1095.24a67.26,67.26,0,0,0-3.74-10.68c-.92.4-1.9.78-2.84,1.17a78.49,78.49,0,0,1,2.53,10.35s.82,3.22,1.42,7.34c1.16-.32,2.24-.67,3.38-1A67.93,67.93,0,0,0,1227.73,1095.24Z"/></g><path class="cls-7" d="M1114.86,1117.83c49.26,1.58,133.92-14.18,155.47-34.66,5.36-5.09,4.52-14.68.43-26.9-21.64,17.68-62,42.16-123.36,46.88-51.05,3.93-70.39-4.21-77.22-12.91-.55,1.21-1,2.32-1.43,3.43,9.58,8,24.94,14.18,76.42,12.75,64.58-1.79,97.47-22.72,82.56-11.18s-56.85,19.56-110.67,17.76c-30.45-1-44.24-5.67-50.47-9.51C1066.89,1115,1081.86,1116.77,1114.86,1117.83Z"/><path class="cls-7" d="M1139.13,1007.07c27.26,8.07,78-9.16,67.08,2.22-9.58,9.94-49.91,7.11-62.07,6,.7,1.1,1.43,2.29,2.1,3.32,18.57,2.42,64,4.79,97.07-22.55-2.41-5.16-4.75-10.33-6.91-15.45-33.89,29.33-77.65,27.09-100.15,21.58C1137.23,1003.91,1138.17,1005.46,1139.13,1007.07Z"/><path class="cls-27" d="M1430.86,1170.1c50.64,3.12,138.22-13.35,161-37,15.24-15.84-14.64-71.22-31.89-122.23-35.74,33.84-80.7,30.07-103.69,23,13.22,28.61,25.47,46.06,25.47,46.06s-67.71,2.15-89.33,42.65S1380.22,1167,1430.86,1170.1Z"/><path class="cls-6" d="M1430.86,1170.1c-44.17-2.73-56.95-6.11-45.16-33.8,6.77,10.48,26.43,20.6,79.08,17.26,63.25-4,105.52-32,128.32-52.32,3.84,14.57,4.43,25.94-1.24,31.83C1569.08,1156.75,1481.5,1173.22,1430.86,1170.1ZM1560,1010.84c-35.74,33.84-80.7,30.07-103.69,23,3.39,7.35,6.71,13.93,9.79,19.7,19,3.33,65.69,7.29,100.56-24.2C1564.29,1023.13,1562,1017,1560,1010.84Z"/><path class="cls-28" d="M1506.23,1100.24c-.54.29-2.64-3.19-5.24-6a41.56,41.56,0,0,0-5.53-5,40.12,40.12,0,0,0-5.73-4.67c-3.06-2.09-6.56-3.41-6.47-4.09s4-.53,7.71.91a31.33,31.33,0,0,1,7.06,3.92,35.53,35.53,0,0,1,5.26,6.67C1505.55,1095.72,1506.76,1100,1506.23,1100.24Zm.24-24.07a35.29,35.29,0,0,0-9-2.92,34.4,34.4,0,0,0-9.29.87c-4.59,1.09-8.68,3.59-8.45,4.2s4.51-.62,8.81-.76a92.42,92.42,0,0,1,16.9,1.9c4.19,1.1,8.17,3.28,8.5,2.71S1510.76,1078.26,1506.47,1076.17Z"/><g class="cls-26"><path class="cls-6" d="M1485.82,1164.51s-.3-6.76-.76-13.17l-2.91.4c-.37,6.31-.59,12.84-.59,12.84s.07,1.42.18,3.55c1.32-.15,2.63-.26,4-.43C1485.78,1165.79,1485.82,1164.51,1485.82,1164.51Z"/><path class="cls-6" d="M1508.85,1044.33s2.39,4.65,4.53,9.64c1-.17,2-.32,3.07-.52l-.09-.37a109.85,109.85,0,0,0-3.72-11s-1.21-2.39-2.91-5.42c-1.29.25-2.56.43-3.83.63C1507.52,1041.13,1508.85,1044.33,1508.85,1044.33Z"/><path class="cls-6" d="M1488.31,1046.18s1.58,4.68,3.53,9.51c1.07,0,2.16,0,3.26,0l-.06-.27c-1.35-5.39-2.69-10.78-2.69-10.78s-.89-2.64-2-6c-1.26,0-2.49,0-3.72,0C1487.46,1042.72,1488.31,1046.18,1488.31,1046.18Z"/><path class="cls-6" d="M1536.57,1033.28s1.94,5.42,3.49,11.08c.16.57.31,1.15.46,1.72.88-.39,1.76-.81,2.64-1.23-.06-.44-.11-.87-.17-1.31a110.43,110.43,0,0,0-2.41-11.93s-.78-2.24-2-5.21c-1.15.62-2.3,1.15-3.45,1.71C1536,1031.09,1536.57,1033.28,1536.57,1033.28Z"/><path class="cls-6" d="M1434,1170.21V1170s-.36-6.64-.38-13.34c0-1,0-1.89,0-2.83-.88,0-1.81-.08-2.67-.14q-.18,1.38-.33,2.79c-.72,6.41-.85,12.82-.87,13.51l1.14.08C1431.86,1170.16,1433,1170.16,1434,1170.21Z"/><path class="cls-6" d="M1555.71,1014.54c-.82.69-1.62,1.46-2.44,2.12,2.44,5,4.24,10.08,4.24,10.08a59.48,59.48,0,0,1,2.9,7.69c1-.78,2-1.66,3-2.48a54.36,54.36,0,0,0-2-7.29A78,78,0,0,0,1555.71,1014.54Z"/><path class="cls-6" d="M1466.53,1045.72a87.43,87.43,0,0,0,4.21,8.5c1.29.19,2.65.36,4.1.53a110.94,110.94,0,0,1-4.4-11s-1.31-3.09-2.7-7.17c-1.32-.25-2.6-.51-3.85-.79A92.22,92.22,0,0,0,1466.53,1045.72Z"/><path class="cls-6" d="M1457.65,1162.2s-.21-3.85-.54-8.26l-3.33.12c-.25,4.4-.39,8.23-.39,8.23s.21,3.68.52,8l3.38-.15C1457.52,1165.85,1457.65,1162.2,1457.65,1162.2Z"/><path class="cls-6" d="M1393,1147.9c.2-1.33.44-2.65.69-3.91-.76-.49-1.45-1-2.11-1.5-.53,1.43-1,3-1.5,4.58a85.28,85.28,0,0,0-2.47,12.5s0,1.25,0,3.14a24,24,0,0,0,3.87,1.85c.19-2.7.42-4.59.42-4.59A110.85,110.85,0,0,1,1393,1147.9Z"/><path class="cls-6" d="M1410.46,1165.68l-.06-10.93c0-1.38,0-2.76,0-4.06-.76-.19-1.58-.36-2.3-.56-.25,1.37-.49,2.86-.7,4.36-.79,5.49-1.19,11-1.19,11s0,.94,0,2.39c1.3.18,2.61.35,4,.51C1410.39,1166.78,1410.46,1165.68,1410.46,1165.68Z"/><path class="cls-6" d="M1514,1159.29s-1.24-7.77-2.45-13.66c-.81.23-1.58.48-2.39.7.12,6,.61,13.62.61,13.62s.27,1.64.66,4c1.28-.23,2.52-.51,3.79-.75C1514.05,1160.88,1514,1159.29,1514,1159.29Z"/><path class="cls-6" d="M1595.89,1122.54l-.12-.54a83.79,83.79,0,0,0-5-12.89c-.68-1.41-1.42-2.75-2.16-4-.65.54-1.36,1.1-2,1.65.51,1.25,1,2.55,1.48,3.88a106.18,106.18,0,0,1,3.59,12.74s.94,3.22,1.84,7.46A18.91,18.91,0,0,0,1595.89,1122.54Z"/><path class="cls-6" d="M1573.44,1141.8a118.7,118.7,0,0,0-5.38-15.59c-.67-1.59-1.37-3.14-2.07-4.63-.71.45-1.48.89-2.21,1.34.5,1.51,1,3.07,1.51,4.66a151.69,151.69,0,0,1,4,15.49s.39,1.43.87,3.64c1.3-.58,2.6-1.15,3.82-1.75C1573.7,1143,1573.44,1141.8,1573.44,1141.8Z"/><path class="cls-6" d="M1547.67,1146.26a87.26,87.26,0,0,0-3.54-12.73c-1,.45-2,.87-3,1.31a106.06,106.06,0,0,1,2.3,12.31s.75,3.83,1.24,8.72c1.2-.35,2.33-.73,3.51-1.09C1548.13,1150,1547.67,1146.26,1547.67,1146.26Z"/></g><path class="cls-7" d="M1430.86,1170.1c50.64,3.12,138.22-13.35,161-37,5.67-5.89,5.08-17.26,1.24-31.83-22.8,20.37-65.07,48.31-128.32,52.32-52.65,3.34-72.31-6.78-79.08-17.26-.61,1.42-1.1,2.73-1.58,4,9.62,9.73,25.25,17.43,78.26,17.06,66.51-.47,101-24.39,85.29-11.12s-59.08,21.68-114.4,18.18c-31.31-2-45.36-7.84-51.66-12.55C1381.58,1165.48,1396.93,1168,1430.86,1170.1Z"/><path class="cls-7" d="M1459.09,1039.66c27.82,10.25,80.58-8.85,69,4.34-10.15,11.52-51.57,7.13-64,5.51.69,1.32,1.4,2.75,2.06,4,19,3.33,65.69,7.29,100.56-24.2-2.34-6.17-4.59-12.35-6.66-18.46-35.74,33.84-80.7,30.07-103.69,23C1457.23,1035.86,1458.16,1037.72,1459.09,1039.66Z"/><path class="cls-29" d="M1078.79,675.19c2.58-24.45-5.57-45.85-11.29-57.42-45.58,14.41-72.77,8.35-72.77,8.35s-31.67-40.73-69.38-12.07-42.23,42.23-25.64,78.43,57.31,52.8,98,15.09a432.15,432.15,0,0,0,71.78,10.75C1073.4,705.69,1077.19,690.46,1078.79,675.19Z"/><path class="cls-30" d="M1720.24,252.05c-6-49.78-19.6,9.05-19.6,9.05s3-64.86-34.7-83-37.7,86-37.7,86-4.53-28.65-21.12-25.64-6,70.9,19.61,99.55c0,0-7,43.13-51.45,77.58,4.23,9.36,15.19,26.25,42.54,40.34,12.59,6.48,27.2,7.34,41.33,5.48,30.6-69.73,15.84-108.31,15.84-108.31S1726.28,301.82,1720.24,252.05Z"/><path class="cls-31" d="M1196.63,465s-24.63,38.67,69.42,33,151.16-50,166.83-71.65-20.15-40.94-20.15-40.94Z"/><path class="cls-32" d="M1196.63,465a18.56,18.56,0,0,0-1.32,2.68c6.38,8.48,24.2,15.89,69.14,13.17,94-5.68,151.15-50,166.83-71.65a21.76,21.76,0,0,0,2.52-4.54c-6.46-11.35-21.07-19.27-21.07-19.27Z"/><g class="cls-33"><path class="cls-34" d="M1301,729c-64.82,0-84.54-28.3-85.47-29.69l5.5-3.66-2.75,1.83,2.74-1.85c.23.36,25.37,35.62,112.42,24.6,90-11.38,159.39-58.39,179.91-88.14l5.43,3.75c-21.21,30.76-92.48,79.31-184.51,90.94A264.62,264.62,0,0,1,1301,729Z"/></g><path class="cls-35" d="M1552.7,982.31c-41.26,37.05-83.55,37.89-105.31,35l3.88,6.76c3.4.29,7.06.49,11.1.49,24.1,0,58.63-6.5,92.26-35.31C1554,987,1553.34,984.67,1552.7,982.31Z"/><path class="cls-36" d="M1380.75,887.41c1.24,2,2.46,4.13,3.68,6.26,19.18-28,67.57-85.51,138.34-80.1-.23-2.22-.47-4.42-.69-6.68C1450.8,802.06,1401.69,857.67,1380.75,887.41Z"/><path class="cls-37" d="M1216.07,917.66c-63.92,30.48-98.28,21.34-112.74,13.52q1.93,4.68,4,9.33c7.39,2.89,17.33,5.21,30.31,5.21,19.16,0,44.9-5.08,78.52-20.76A52.64,52.64,0,0,1,1216.07,917.66Z"/><path class="cls-38" d="M1177.65,756c-2.67,1.35-5.36,2.75-8.1,4.22,22.76,8.34,59.8,33.25,89.08,107.38q3-1.33,6.1-2.55C1236.72,794.12,1201.94,766.62,1177.65,756Z"/><g class="cls-33"><path class="cls-39" d="M1108.06,601.14c7.78,8.37,18.33,25.34,21.47,57.63,2.36,24.29.77,43.44-1.68,57.21q3.54-.62,7-1.36c2.27-14,3.55-32.87,1.25-56.49-3.13-32.24-13.41-50.34-21.89-60.07C1112.12,599.15,1110.11,600.12,1108.06,601.14Z"/><path class="cls-40" d="M1497.08,450.56q-3.3.74-6.7,1.4c-.56,19.72,1.38,60.7,24.74,82.27A109.25,109.25,0,0,0,1555,557.78c2.59-1.5,5.2-3,7.83-4.62a102.76,102.76,0,0,1-43.2-23.78C1497.78,509.24,1496.49,468.56,1497.08,450.56Z"/></g><path class="cls-41" d="M937.18,704.88a29.74,29.74,0,0,1-8.48,3.41,18.51,18.51,0,0,1-8.37.34,29.51,29.51,0,0,1-8.73-2.69c-6.11-2.85-10.1-8.28-9.6-8.6s5,4,10.74,5.9a33.74,33.74,0,0,0,23.07-1c5.61-2.35,9.79-7.11,10.22-6.78S943,701.53,937.18,704.88Zm27.48-7.8a12.52,12.52,0,0,0-3.47-2.57,22.33,22.33,0,0,0,8.87-6.44,23.58,23.58,0,0,0,4.7-9.8,24.9,24.9,0,0,0,.37-8.77,15.21,15.21,0,0,0-.56-2.61c-.08-.48-.77-1.68-.16-1.17a6.78,6.78,0,0,0,5.07.08,7.16,7.16,0,0,0,2.9-1.84c1.07-1.23,1-1.73,1-1.73s-.26.34-1.37,1.37a7.18,7.18,0,0,1-2.78,1.5c-1.39.28-2.79.91-6.27-1.1-.86-.4.71,3.77.52,5.66a25.25,25.25,0,0,1-.9,8.07c-1.51,5.95-6.52,12.08-13.23,14.06a18.62,18.62,0,0,1-9.62.56,19.7,19.7,0,0,1-7.4-3.55,28.27,28.27,0,0,1-5.71-5.74,23.25,23.25,0,0,1-1.84-2.43,39.07,39.07,0,0,1-3.95-7A41.87,41.87,0,0,1,928,649.45a43.18,43.18,0,0,1,11.53-21.79c4.84-4.93,9.1-7,8.9-7.38a8.84,8.84,0,0,0-3,1.26,37.05,37.05,0,0,0-7,5,43.47,43.47,0,0,0-13.29,22.36,44.65,44.65,0,0,0,2.18,26.22c.2.51.42.88.63,1.35a29.83,29.83,0,0,1-9.88.75,28,28,0,0,1-8.59-2.22,25,25,0,0,1-3.5-1.87,24.4,24.4,0,0,1-3.32-2.19,27.47,27.47,0,0,1-6.06-6.47c-3.87-5.42-4.62-12.35-5.15-12.31s-1,7.32,2.63,13.8a29.15,29.15,0,0,0,6.12,7.9,19.41,19.41,0,0,0,7.9,4.69,28.74,28.74,0,0,0,9.86,1.59,25,25,0,0,0,10.59-2.39,46.16,46.16,0,0,0,2.89,5.21,28.22,28.22,0,0,0,2,2.74,30.94,30.94,0,0,0,6.65,6.3,23.37,23.37,0,0,0,8.7,3.85c-.19.27-.28.46-.22.5s.45-.1,1-.36a21.45,21.45,0,0,0,8.42-.35,11.34,11.34,0,0,1,4.55,3.44c1.21,1.48,2.06,3.19,1.93,4.5a9.93,9.93,0,0,1-1.69,4.13,40.6,40.6,0,0,1-6.3,7.47,26.73,26.73,0,0,1-9.4,5.36c-7.73,2.77-16.13.47-16.22.94-.38.55,8.12,4.14,17,1.89a28.83,28.83,0,0,0,11-5.24,27.19,27.19,0,0,0,4.13-3.83,26.81,26.81,0,0,0,3.08-4.72,12.82,12.82,0,0,0,1.8-6A9.93,9.93,0,0,0,964.66,697.08Zm11.06,13.66a7.67,7.67,0,0,0-5.09-1.62c-1.48.13-2.26.74-2.18,1,.17.42,3.5.39,5.31,2.81a5,5,0,0,1,1.26,4.63,5.1,5.1,0,0,1-.34,1.51,8.71,8.71,0,0,1-2.26,3.14c-2.27,2.14-5.39,3.74-5.15,4.3s3.63,0,6.89-2a10.89,10.89,0,0,0,3.91-3.76,8.08,8.08,0,0,0,1-2.5,7.41,7.41,0,0,0-.18-2.83A8.55,8.55,0,0,0,975.72,710.74Zm22.83-21.68c-.34-.46-3.15.8-6.06,1.11a23.16,23.16,0,0,1-5.73-.07,22.86,22.86,0,0,1-5.7-.63c-2.85-.65-5.49-2.25-5.88-1.83s1.75,3,4.82,4.56a14.26,14.26,0,0,0,13.21.81C996.44,691.83,998.9,689.51,998.55,689.06Zm3.14-42.38s1.26,4.37,2.14,8.88,1.44,9.13,2,9.13,1.08-4.7.89-9.46a75.3,75.3,0,0,0-1-9.47,75.61,75.61,0,0,0-3.2-9c-1.9-4.37-4.41-8.39-4.92-8.14s1,4.65,2.15,9.1S1001.69,646.68,1001.69,646.68Zm8.48-5a72,72,0,0,0-5.29-8c-2.92-3.8-6.36-7.08-6.79-6.71s2.15,4.26,4.34,8.32,4.05,8.22,4.05,8.22,2.27,4,4.2,8.14,3.52,8.57,4.09,8.44,0-4.84-1.35-9.44A70.82,70.82,0,0,0,1010.17,641.66Zm-1.4,49.4a39.45,39.45,0,0,1-3.49,5.71,38.93,38.93,0,0,1-3.69,5.58c-2.1,2.67-4.78,4.93-4.49,5.42s3.67-1,6.56-3.35a19.76,19.76,0,0,0,7.86-12.37c.94-3.62.81-7.32.25-7.36S1010.29,688,1008.77,691.06ZM1658.23,283.5a22.27,22.27,0,0,0-3.13-4.21,35.69,35.69,0,0,0-8.9-6.56l-9.37-4.91c-2.51-1.35-4.12-2.4-4.32-2.17s1.12,1.7,3.43,3.52,5.61,3.9,8.72,6.05a35.12,35.12,0,0,1,7.57,6.59,19,19,0,0,1,2.36,3.66,18.26,18.26,0,0,1,1.79,4,30.83,30.83,0,0,1,1.43,9.87c0,7.48-1.81,15.06-1.18,15.2.47.14,3.29-7.12,4.1-15.06a32,32,0,0,0-.68-11.07A22,22,0,0,0,1658.23,283.5Zm.78-77.9c-3.24-9.42-8.53-17.82-9-17.53s3.78,9.05,6.2,18.4a113.55,113.55,0,0,1,3.26,18.89,114.32,114.32,0,0,1,.74,19.16c-.43,9.64-2.8,19.11-2.24,19.28s4-9.12,5.16-19a102.5,102.5,0,0,0,.45-19.85A102.76,102.76,0,0,0,1659,205.6Zm20.06,34.3c0,3.86,0,9-.41,14a64.91,64.91,0,0,1-2.32,13.69c-1.07,3.64-2.23,5.95-1.95,6.11s1.87-1.93,3.46-5.55a54.25,54.25,0,0,0,3.72-13.93c.75-5.18,1-10.37,1.31-14.22s.37-6.46.37-6.46a137.5,137.5,0,0,0-1.23-20.79c-1.26-10.48-5.86-20.07-6.42-19.76s3,9.88,3.51,20.09a162,162,0,0,1,0,20.36Zm26.13,10.67c-.57,0-1,4-1.71,7.91s-1.81,7.64-1.81,7.64-.6,3.85-1.58,7.69-2.3,7.62-1.79,7.88,2.82-3.13,4.54-6.9a55.92,55.92,0,0,0,2.87-7.78,57.28,57.28,0,0,0,.69-8.26C1706.44,254.6,1705.77,250.54,1705.2,250.57Zm-63.32,91.35a50.55,50.55,0,0,1-5.43-1.63c-2.69-1-5.32-2.34-5.67-1.89s1.73,2.72,4.32,4.48a17.44,17.44,0,0,0,11.69,3.81c3.13.11,6.17-.5,6.14-1.07s-3-1-5.7-1.82A50.32,50.32,0,0,1,1641.88,341.92Zm43.5-4.69a84,84,0,0,1-11.47,9c-3.2,1.86-6.89,2.9-6.82,3.47s4.1.55,8-.79a30.8,30.8,0,0,0,7.31-3.68,31.32,31.32,0,0,0,5.31-6.22c2.21-3.47,3.19-7.41,2.66-7.59S1687.94,334.56,1685.38,337.23Z"/><g class="cls-42"><path class="cls-43" d="M943.26,615.05c.16.56-6.73,3-12.78,6.91a75.4,75.4,0,0,0-11.32,8.66,59.25,59.25,0,0,0-9.91,10.11,25.5,25.5,0,0,0-4.27,8.55c-.69,2.55-.58,4.4-.91,4.43s-.91-1.79-.68-4.69a23.53,23.53,0,0,1,3.41-9.9,55.23,55.23,0,0,1,9.64-11.61,67.73,67.73,0,0,1,12.62-8.12C935.79,616,943.14,614.5,943.26,615.05Z"/><path class="cls-44" d="M947.56,672.59c-.39.42-4.08-2.74-6.5-7a24.81,24.81,0,0,1-3.31-18.82c.82-4.84,3.22-9.06,3.72-8.8s-.78,4.64-.8,9.1a38.22,38.22,0,0,0,.92,8.73,38.72,38.72,0,0,0,2.11,8.52C945.24,668.49,948,672.19,947.56,672.59Z"/><path class="cls-45" d="M923.08,698c.06.57-3.77,1.22-7.64.45a18.19,18.19,0,0,1-12.93-8.15c-2.36-3.16-3.42-6.9-2.88-7.1s2.46,2.85,5.07,5.15a29.65,29.65,0,0,0,5.59,3.95,30.27,30.27,0,0,0,6,3.34C919.46,697,923.06,697.41,923.08,698Z"/><path class="cls-46" d="M1058.4,632.15c.21.53-4.36,2.8-9.32,4.19a39.29,39.29,0,0,1-20.33,1.22c-5.09-.79-9.9-2.49-9.76-3s5.09.1,10,.12a87.72,87.72,0,0,0,9.76-.48,89.87,89.87,0,0,0,9.74-.69C1053.37,632.87,1058.2,631.62,1058.4,632.15Z"/><path class="cls-47" d="M1624.32,362.1c.56.11-.61,7.69-3.08,15a105.53,105.53,0,0,1-6,14.17,105.31,105.31,0,0,1-9,12.52c-4.93,5.91-10.79,10.86-11.17,10.45s4.64-6,8.85-12.23a129.74,129.74,0,0,0,7.66-12.77,129,129,0,0,0,6.89-13.2C1621.6,369.22,1623.76,362,1624.32,362.1Z"/><path class="cls-48" d="M1628.38,318.16c-.42.32-6.18-6.11-11.34-13.13a95.37,95.37,0,0,1-9.06-15,57.65,57.65,0,0,1-4-17.24c-.84-9,2.48-17.49,3-17.19.48.15-1.67,8.55-.14,16.88a59.79,59.79,0,0,0,4.92,15.91,107.26,107.26,0,0,0,7.69,15C1623.92,310.7,1628.88,317.8,1628.38,318.16Z"/><path class="cls-49" d="M1653.41,233.41c-.58.06-1.52-4.06-2.57-8.11s-2.16-8.06-2.16-8.06-.73-4.11-1.45-8.22-1.65-8.25-1.11-8.44,2.42,3.64,3.93,7.64,2.66,8.12,2.66,8.12.71,4.23,1,8.49S1654,233.36,1653.41,233.41Z"/><path class="cls-50" d="M1675.63,226.19c-.58,0-1.08-5.12-2.14-10.09s-2.53-9.77-2.53-9.77-1-4.92-2.61-9.75-3.6-9.54-3.1-9.84,3.52,4,5.82,8.74a75.29,75.29,0,0,1,3.89,9.8,74.77,74.77,0,0,1,1.43,10.44C1676.73,221,1676.19,226.21,1675.63,226.19Z"/><path class="cls-51" d="M1705.92,296.48c-.51-.27,1.74-5.9,3.19-11.71a102.22,102.22,0,0,0,2.23-11.7,104.62,104.62,0,0,0,1.7-11.79c.52-6,.21-12,.79-12.11s1.91,6,2.13,12.16a79.37,79.37,0,0,1-.54,12.42,80.75,80.75,0,0,1-3.52,11.92C1709.66,291.48,1706.42,296.75,1705.92,296.48Z"/></g><path class="cls-52" d="M1247.08,709.14a9.2,9.2,0,0,1,1,.22c17.34,5.89,34.74,6.59,52.27,5.09-30.25-48.73-67.62-121.52-74.32-192.32,0,0-2.75,109,14.86,167.84C1242.94,697,1245,703.35,1247.08,709.14Z"/><path class="cls-53" d="M1310.37,730.25c-18.62,2.25-37.19,2.73-55.58-1.47C1266.27,755,1275,762.05,1275,762.05s35.76,20.36,65.48,10.46C1340.44,772.51,1327.54,756.4,1310.37,730.25Z"/><ellipse class="cls-54" cx="1260.05" cy="247.27" rx="250.19" ry="223.56" transform="translate(-17.7 374.61) rotate(-16.79)"/><path class="cls-55" d="M1499.57,175C1479.86,109.69,1429.46,61.15,1366,37.46c48.2,26.52,85.42,69,101.7,122.92,35.67,118.21-42.65,246.39-174.93,286.31-59.21,17.87-119.17,15-170.57-4.21,57.44,31.6,130.48,40.52,202.42,18.81C1456.92,421.37,1535.24,293.18,1499.57,175Z"/><path class="cls-56" d="M1185.66,81c-49.12,5.4-93.27,22.77-128.39,47.91-40.95,55.19-56.72,124.48-36.75,190.64,17.36,57.5,58.52,102,111.42,128a280,280,0,0,0,94.58,5.48c127.61-14,221.92-108.66,210.64-211.38S1313.27,67,1185.66,81Z"/><path class="cls-57" d="M1038.43,332.58c-20-66.17-4.2-135.45,36.75-190.64,35.12-25.15,79.27-42.52,128.39-47.91,64.39-7.08,124.94,7.75,170.6,37.35C1327.13,93.25,1258.89,73,1185.66,81c-49.12,5.4-93.27,22.77-128.39,47.91-40.95,55.19-56.72,124.48-36.75,190.64,14.51,48.07,45.69,87,86.42,113.67C1075,407.49,1050.73,373.33,1038.43,332.58Z"/><path class="cls-58" d="M1437.16,241.63C1425.87,138.9,1313.27,67,1185.66,81c-49.12,5.4-93.27,22.77-128.39,47.91a238,238,0,0,0-28.11,49.21A218.14,218.14,0,0,1,1049.47,146c33-23,74.53-39,120.72-43.91,120-12.84,225.86,53.06,236.47,147.2S1328.6,430.13,1208.61,443a270.15,270.15,0,0,1-88.93-5,218.67,218.67,0,0,1-32-18.8,229.17,229.17,0,0,0,44.23,28.38,280,280,0,0,0,94.58,5.48C1354.13,439,1448.44,344.35,1437.16,241.63Z"/><path class="cls-59" d="M1194.11,437.48a271.06,271.06,0,0,1-86.35-4.72c-2.21-1-4.28-2.23-6.43-3.32a229.8,229.8,0,0,0,20.38,12.74,281.05,281.05,0,0,0,89.79,4.73c123.93-13.18,215.51-102.15,204.55-198.72S1295.75,84,1171.82,97.18c-47,5-89.17,20.93-123,44a238,238,0,0,0-12.72,22c1.19-1.61,2.25-3.29,3.49-4.87C1071.65,136.6,1112,121.64,1156.8,117c116.53-12.07,219.34,49.88,229.64,138.38S1310.64,425.4,1194.11,437.48Z"/><path class="cls-60" d="M1271.76,27.44c-76.92-.51-131.66,39.12-151.41,62.47,0,0,41-27.77,119.58-18A146.76,146.76,0,0,1,1271.76,27.44Z"/><path class="cls-61" d="M1309.18,30.77c-6.74-1.16-13.33-2-19.79-2.52a136.38,136.38,0,0,0-36.7,45.59,341.42,341.42,0,0,1,45.08,10.88C1414,121,1432.65,192.63,1432.65,192.63S1405.68,47.37,1309.18,30.77Z"/><path class="cls-62" d="M1195.45,33.25a272.61,272.61,0,0,0-108,61.83c-19.81,44.65.23,76.2,51.06,71.2,55.62-5.46,70.08-25.13,74.53-48.07,4.36-22.48-6.16-81.63,79.21-96.35A275.37,275.37,0,0,0,1195.45,33.25Z"/><path class="cls-63" d="M1156.83,15.05S1114.9,29.72,1086.6,79s-10.48,86,41.93,80.71,66-24.11,70.23-46.12-6.29-80.71,79.66-93.29C1278.42,20.29,1262.7-21.64,1156.83,15.05Z"/><path class="cls-64" d="M1237.87.25c-58.69,19.36-50.87,67.94-54.6,87.51-4.19,22-17.82,40.88-70.23,46.13-16.9,1.69-30.15-1-39.47-7.08,2.59,22.75,21.85,36.2,55,32.89,52.41-5.24,66-24.11,70.23-46.12s-6.29-80.71,79.66-93.29C1278.42,20.29,1271.73,2.53,1237.87.25Z"/><path class="cls-65" d="M1278.42,20.29s-6.69-17.76-40.55-20c-58.69,19.36-50.87,67.94-54.6,87.51-1.62,8.53-4.7,16.57-10.86,23.54,3.47,8.42,8.83,17.51,16.95,24.06,5.18-6.56,7.91-14,9.4-21.78C1203,91.57,1192.47,32.87,1278.42,20.29Z"/><path class="cls-66" d="M1482.49,134.82c-5.42,11.07-27.81,48.26-93.38,72.91,0,0-18.83,14.23-13.11,47.26s14.25,40.39,42.83,40.39c22,0,61.66-6.88,87.07-31.52a201.76,201.76,0,0,0-23.41-129Z"/><path class="cls-67" d="M1389.11,200.1s-18.83,12.81-13.11,42.53S1390.25,279,1418.83,279s86.87-10.29,105.16-52.58-11.43-92.59-40-94.88C1484,131.51,1466.84,173.81,1389.11,200.1Z"/><path class="cls-68" d="M1497.14,135.93c11.17,18.86,15.95,45,5.73,68.58-18.29,42.3-76.58,52.59-105.16,52.59a82.25,82.25,0,0,1-18.58-1.67c5.95,18.86,15.82,23.54,39.7,23.54,28.58,0,86.87-10.29,105.16-52.58C1539.45,190.64,1520.59,149.29,1497.14,135.93Z"/><path class="cls-69" d="M1393.27,250.4c-5.72-29.72,13.11-42.53,13.11-42.53,77.73-26.29,94.87-68.59,94.87-68.59.41,0,.81.17,1.21.22-5.87-4.55-12.19-7.48-18.48-8,0,0-17.14,42.3-94.87,68.59,0,0-18.83,12.81-13.11,42.53,4.61,24,11.08,32.92,28.44,35.48C1399.06,272.59,1395.86,263.89,1393.27,250.4Z"/><path class="cls-70" d="M1501.25,139.28c.41,0,.81.17,1.21.22-5.87-4.55-12.19-7.48-18.48-8,0,0-17.14,42.3-94.87,68.59,0,0-.32.22-.85.65l17.68,7.45.44-.33C1484.11,181.58,1501.25,139.28,1501.25,139.28Z"/></g></g></g></svg>