<svg xmlns="http://www.w3.org/2000/svg" xmlns:xlink="http://www.w3.org/1999/xlink" viewBox="0 0 6426.62 5405.3"><defs><style>.cls-1{fill:none;}.cls-2{fill:url(#Degradado_sin_nombre_4);}.cls-3{isolation:isolate;}.cls-4{clip-path:url(#clip-path);}.cls-5{clip-path:url(#clip-path-2);}.cls-6{fill:#3a3b52;opacity:0.2;mix-blend-mode:multiply;}.cls-11,.cls-7,.cls-8,.cls-9{fill-rule:evenodd;}.cls-11,.cls-7,.cls-9{opacity:0.72;}.cls-7{fill:url(#Degradado_sin_nombre_3);}.cls-12,.cls-8{fill:#fff;}.cls-9{fill:url(#Degradado_sin_nombre_3-2);}.cls-10{opacity:0.5;}.cls-11{fill:url(#Degradado_sin_nombre_3-3);}.cls-13{fill:#3aa0a5;}</style><linearGradient id="Degradado_sin_nombre_4" x1="2331.54" y1="-2704.65" x2="-1883.86" y2="1510.75" gradientTransform="translate(3095.27 3681.33)" gradientUnits="userSpaceOnUse"><stop offset="0" stop-color="#6cb1e9"/><stop offset="1" stop-color="#da1a2d"/></linearGradient><clipPath id="clip-path"><rect class="cls-1" x="1030.51" y="1499.72" width="4886.48" height="2861"/></clipPath><clipPath id="clip-path-2"><rect class="cls-2" x="2042.64" y="486.5" width="2861.65" height="4887.03" transform="translate(543.45 6403.49) rotate(-90)"/></clipPath><linearGradient id="Degradado_sin_nombre_3" x1="3586.21" y1="3825.51" x2="4283.34" y2="3825.51" gradientTransform="translate(-311.76 1780.92) rotate(-34.74)" gradientUnits="userSpaceOnUse"><stop offset="0.06" stop-color="#97c2e1" stop-opacity="0"/><stop offset="0.19" stop-color="#97c2e1" stop-opacity="0.02"/><stop offset="0.31" stop-color="#97c2e1" stop-opacity="0.07"/><stop offset="0.43" stop-color="#97c2e1" stop-opacity="0.16"/><stop offset="0.56" stop-color="#97c2e1" stop-opacity="0.28"/><stop offset="0.68" stop-color="#97c2e1" stop-opacity="0.44"/><stop offset="0.8" stop-color="#97c2e1" stop-opacity="0.64"/><stop offset="0.92" stop-color="#97c2e1" stop-opacity="0.86"/><stop offset="0.99" stop-color="#97c2e1"/></linearGradient><linearGradient id="Degradado_sin_nombre_3-2" x1="285.37" y1="3344.84" x2="982.5" y2="3344.84" xlink:href="#Degradado_sin_nombre_3"/><linearGradient id="Degradado_sin_nombre_3-3" x1="1292" y1="1520.17" x2="1989.12" y2="1520.17" xlink:href="#Degradado_sin_nombre_3"/></defs><title>bg_1</title><g class="cls-3"><g id="Capa_2" data-name="Capa 2"><g id="Capa_1-2" data-name="Capa 1"><g class="cls-4"><rect class="cls-2" x="2042.64" y="486.5" width="2861.65" height="4887.03" transform="translate(543.45 6403.49) rotate(-90)"/><g class="cls-5"><path class="cls-6" d="M3014.91,5399.41c-317.07-243.88-510.7-587.4-529.13-938.72-7-133,11.58-270.5,89.24-388.33s222.5-213,388.59-224.16c140.83-9.48,277.4,40.39,396.95,100.61,259,130.48,470.59,312.6,716.55,458.33C4338.4,4562,4644,4676,4967.67,4702.44s665.59-41.26,911.29-211.6c219.25-152,347.49-371.77,430.14-594.09,338.53-910.63-69.14-1984.81-1031.32-2543-202.92-117.7-432.12-214.37-680.62-241.24s-518.73,24.38-694.75,167.07c-221.65,179.67-252.95,463.56-188,710.43,124.05,471.46,532.15,857.08,816.08,1282.09,120.44,180.29,211.46,420.25,42.4,573.61-134.57,122.09-372,124.87-570.48,88.4-450.12-82.72-832.93-310.22-1242.67-480.51s-908.68-283.94-1326.58-126.83c-227.88,85.67-401.57,241.74-550.73,403.85-47.67,51.8-117.6,111.52-193.73,90.71-32.67-8.94-56.36-31.37-76.31-53.88C476.06,3613.62,439,3416,450.72,3227.69c21.23-339.83,246.17-710.5,659.35-793.05,259.23-51.79,535.29,22.33,759.76,138.16s411.71,271.36,618.63,406.44c225.21,147,474.76,270.22,740.1,365.36,186.19,66.76,415.75,116.75,583.93,24.39,122.74-67.41,174.71-197.25,157.88-315.49s-92.28-226.25-181-321.82c-257.67-277.5-632.38-473-1026.08-616s-811.19-238.6-1218.72-354.26c-250.92-71.21-508.87-155.92-682-317.51C624.36,1221.7,601.65,876,786.65,623.53s555-404,921.12-399.4c299.22,3.8,605.92,114.7,762.58,318.41,164.35,213.71,142.12,482.11,156.85,732.65s102,534.18,380.41,650.08c115.86,48.23,271,55.52,367.29-15,88.49-64.79,100.84-171.65,97.17-267.5-16.6-432.77-236.18-841.94-452.24-1239-32.81-60.3-66.36-121.57-119.6-171.72-70.94-66.81-171.59-108.86-273.49-141.25-596.22-189.5-1325-75.66-1788,279.28C651.84,513.36,508.49,689.59,392.3,874.56,8.93,1484.87-84.65,2199.78,73.14,2870.88S631.65,4169.29,1172.59,4698c277.28,271,598.34,521.75,989.79,679,67.42,27.07,161.3,47.2,208.4.1"/></g><polygon class="cls-7" points="5405.64 2509.42 4818.1 2885.52 4812.24 2877.07 5370.49 2458.72 5405.64 2509.42"/><path class="cls-8" d="M5425,2459.73a43.18,43.18,0,1,1-60.09-10.89A43.18,43.18,0,0,1,5425,2459.73Z"/><polygon class="cls-9" points="2419.13 3995.23 1831.58 4371.33 1825.72 4362.88 2383.97 3944.53 2419.13 3995.23"/><path class="cls-8" d="M2438.47,3945.53a43.19,43.19,0,1,1-60.1-10.88A43.19,43.19,0,0,1,2438.47,3945.53Z"/><g class="cls-10"><polygon class="cls-11" points="2206.67 1922.14 1619.13 2298.24 1613.27 2289.79 2171.52 1871.44 2206.67 1922.14"/><path class="cls-8" d="M2226,1872.44a43.18,43.18,0,1,1-60.09-10.88A43.18,43.18,0,0,1,2226,1872.44Z"/></g><circle class="cls-12" cx="2372.6" cy="1720" r="24.26"/><circle class="cls-12" cx="1134.06" cy="4867.46" r="24.26"/><circle class="cls-12" cx="1861.08" cy="3104.93" r="24.26"/><path class="cls-12" d="M1943,2402.35a11.12,11.12,0,1,1-11.12,11.12A11.12,11.12,0,0,1,1943,2402.35Z"/><path class="cls-12" d="M1745.84,3454.7a11.12,11.12,0,1,1-11.12,11.12A11.12,11.12,0,0,1,1745.84,3454.7Z"/><path class="cls-13" d="M1402.14,2415.5a11.12,11.12,0,1,1-11.12,11.11A11.11,11.11,0,0,1,1402.14,2415.5Z"/><path class="cls-13" d="M2061.05,1405.13a11.12,11.12,0,1,1-11.12,11.12A11.12,11.12,0,0,1,2061.05,1405.13Z"/><path class="cls-13" d="M1244.25,1411.2a11.12,11.12,0,1,1-11.12,11.12A11.12,11.12,0,0,1,1244.25,1411.2Z"/><path class="cls-13" d="M2218.94,1979.8a11.12,11.12,0,1,1-11.12,11.12A11.12,11.12,0,0,1,2218.94,1979.8Z"/><path class="cls-13" d="M1815.59,2708.66a11.12,11.12,0,1,1-11.12,11.11A11.11,11.11,0,0,1,1815.59,2708.66Z"/><path class="cls-13" d="M1624.53,4195.69a11.12,11.12,0,1,1-11.12,11.12A11.11,11.11,0,0,1,1624.53,4195.69Z"/><path class="cls-13" d="M1224,4407.5a11.12,11.12,0,1,1-11.12,11.12A11.12,11.12,0,0,1,1224,4407.5Z"/><path class="cls-13" d="M1313.18,2816.82a11.12,11.12,0,1,1-11.12,11.12A11.12,11.12,0,0,1,1313.18,2816.82Z"/><circle class="cls-12" cx="3505.13" cy="1720" r="24.26"/><circle class="cls-12" cx="2266.59" cy="4867.46" r="24.26"/><circle class="cls-12" cx="2993.61" cy="3104.93" r="24.26"/><path class="cls-12" d="M3075.49,2402.35a11.12,11.12,0,1,1-11.12,11.12A11.12,11.12,0,0,1,3075.49,2402.35Z"/><path class="cls-12" d="M2878.37,3454.7a11.12,11.12,0,1,1-11.12,11.12A11.12,11.12,0,0,1,2878.37,3454.7Z"/><path class="cls-13" d="M2534.66,2415.5a11.12,11.12,0,1,1-11.12,11.11A11.11,11.11,0,0,1,2534.66,2415.5Z"/><path class="cls-13" d="M3193.58,1405.13a11.12,11.12,0,1,1-11.12,11.12A11.12,11.12,0,0,1,3193.58,1405.13Z"/><path class="cls-13" d="M2376.78,1411.2a11.12,11.12,0,1,1-11.12,11.12A11.11,11.11,0,0,1,2376.78,1411.2Z"/><path class="cls-13" d="M3351.47,1979.8a11.12,11.12,0,1,1-11.12,11.12A11.12,11.12,0,0,1,3351.47,1979.8Z"/><path class="cls-13" d="M2948.12,2708.66a11.12,11.12,0,1,1-11.12,11.11A11.11,11.11,0,0,1,2948.12,2708.66Z"/><path class="cls-13" d="M2757.06,4195.69a11.12,11.12,0,1,1-11.12,11.12A11.12,11.12,0,0,1,2757.06,4195.69Z"/><path class="cls-13" d="M2356.56,4407.5a11.12,11.12,0,1,1-11.12,11.12A11.12,11.12,0,0,1,2356.56,4407.5Z"/><path class="cls-13" d="M2445.71,2816.82a11.12,11.12,0,1,1-11.12,11.12A11.11,11.11,0,0,1,2445.71,2816.82Z"/><circle class="cls-12" cx="5373.29" cy="1720" r="24.26"/><circle class="cls-12" cx="4134.75" cy="4867.46" r="24.26"/><circle class="cls-12" cx="4861.78" cy="3104.93" r="24.26"/><path class="cls-12" d="M4943.66,2402.35a11.12,11.12,0,1,1-11.12,11.12A11.12,11.12,0,0,1,4943.66,2402.35Z"/><path class="cls-12" d="M4746.53,3454.7a11.12,11.12,0,1,1-11.12,11.12A11.12,11.12,0,0,1,4746.53,3454.7Z"/><path class="cls-13" d="M4402.83,2415.5a11.12,11.12,0,1,1-11.12,11.11A11.11,11.11,0,0,1,4402.83,2415.5Z"/><path class="cls-13" d="M5061.75,1405.13a11.12,11.12,0,1,1-11.13,11.12A11.12,11.12,0,0,1,5061.75,1405.13Z"/><path class="cls-13" d="M4244.94,1411.2a11.12,11.12,0,1,1-11.12,11.12A11.12,11.12,0,0,1,4244.94,1411.2Z"/><path class="cls-13" d="M5219.63,1979.8a11.12,11.12,0,1,1-11.12,11.12A11.12,11.12,0,0,1,5219.63,1979.8Z"/><path class="cls-13" d="M4816.29,2708.66a11.12,11.12,0,1,1-11.12,11.11A11.11,11.11,0,0,1,4816.29,2708.66Z"/><path class="cls-13" d="M4625.23,4195.69a11.12,11.12,0,1,1-11.12,11.12A11.12,11.12,0,0,1,4625.23,4195.69Z"/><path class="cls-13" d="M4224.72,4407.5a11.12,11.12,0,1,1-11.12,11.12A11.12,11.12,0,0,1,4224.72,4407.5Z"/><path class="cls-13" d="M4313.87,2816.82a11.12,11.12,0,1,1-11.12,11.12A11.12,11.12,0,0,1,4313.87,2816.82Z"/></g></g></g></g></svg>