<svg xmlns="http://www.w3.org/2000/svg" viewBox="0 0 542 542"><defs><style>.cls-1{fill:#dcdde0;}.cls-2{fill:#8e9c4c;}.cls-3{fill:#fcb442;}.cls-4{fill:#fc8d36;}.cls-5{fill:#e74444;}.cls-6{fill:#b01641;}.cls-7{fill:#b75382;}.cls-8{fill:#80588f;}.cls-9{fill:#298057;}.cls-10{fill:#2b70a8;}.cls-11{fill:#fae8d8;}.cls-12{fill:#a4d4f4;}.cls-13{fill:#757c80;}</style></defs><title>btn3</title><g id="Capa_2" data-name="Capa 2"><g id="Capa_1-2" data-name="Capa 1"><circle class="cls-1" cx="271" cy="271" r="271"/><path class="cls-2" d="M219.27,332.62,155.34,410h0c-66-56.25-82.75-152.49-39.68-228.27l86.16,50.48a80.19,80.19,0,0,0,17.46,100.44Z"/><path class="cls-2" d="M242.76,197.29c-35.61,13.22-56.78,50.44-50.24,88.35l-98,17.53c-15-86.18,33.18-170.83,114.19-200.78Z"/><path class="cls-3" d="M269.5,351.18v101h-2A175.35,175.35,0,0,1,155.34,410h0l-.3-.26A180.68,180.68,0,0,1,94.55,303.17l98-17.53c6.61,37.9,39.06,65.53,77,65.54Z"/><path class="cls-4" d="M383.18,410A175.39,175.39,0,0,1,271,452.14h-3.57A175.33,175.33,0,0,1,154.84,410h0l.2-.26,64.11-77.21a77.23,77.23,0,0,0,100.46.23Z"/><path class="cls-5" d="M444.45,303.16h0c-14.89,85.58-87.79,148.21-173.41,149H269.5v-101a77.08,77.08,0,0,0,50.1-18.45l.14-.11a79.58,79.58,0,0,0,26.75-47Z"/><path class="cls-6" d="M447.13,271.85a183.5,183.5,0,0,1-2.68,31.31h0A180.69,180.69,0,0,1,383.68,410l-63.94-77.35A80.17,80.17,0,0,0,337.2,232.19h0l86.15-50.48a181.4,181.4,0,0,1,23.78,90.15Z"/><path class="cls-7" d="M447.13,271.85a183.5,183.5,0,0,1-2.68,31.31h0l-98-17.53a81.67,81.67,0,0,0,1.17-13.79,79.89,79.89,0,0,0-10.46-39.66h0a78.78,78.78,0,0,0-41-34.89l34-94.9C400.45,128.32,447.15,196.05,447.13,271.85Z"/><path class="cls-8" d="M337.2,232.19h0a77.83,77.83,0,0,0-67.7-39.65v-101a175.16,175.16,0,0,1,60.77,10.82h0a178.82,178.82,0,0,1,93.08,79.31Z"/><path class="cls-9" d="M269.5,91.56v101a77.84,77.84,0,0,0-67.69,39.65L115.65,181.7C147.35,125.87,206,91.49,269.5,91.56Z"/><path class="cls-10" d="M330.27,102.38h0l-34,94.9a77.45,77.45,0,0,0-53.48,0l-34-94.9A176,176,0,0,1,330.27,102.38Z"/><path class="cls-11" d="M269.5,170.89c-54.93,0-99.47,45.2-99.47,101s44.54,101,99.47,101S369,327.61,369,271.85,324.44,170.89,269.5,170.89Zm0,158.66c-31.39,0-56.84-25.83-56.84-57.7s25.45-57.69,56.84-57.69,56.84,25.83,56.84,57.69S300.9,329.55,269.5,329.55Z"/><path class="cls-12" d="M474,226.65,429.72,208l-30.33,74.32-10.93,26.76a18.55,18.55,0,0,0,.41,14.89l-4,9.91a18.32,18.32,0,0,0,9.72,23.82A17.86,17.86,0,0,0,418,347.88l4.05-9.92a18.09,18.09,0,0,0,10.66-10.22Zm-52.32,96.44a6,6,0,0,1-4.75,3.69,6,6,0,0,0-4.75,3.7L407,343.22a6,6,0,0,1-7.76,3.44,6.11,6.11,0,0,1-3.39-7.88l.09-.21,5.19-12.74a6.14,6.14,0,0,0-.78-6,6.16,6.16,0,0,1-.78-6l22.13,9.31Z"/><path class="cls-10" d="M426.5,200.21l55.33,23.28L472.66,246l-55.34-23.28Z"/><path class="cls-13" d="M467.93,178.15A18.34,18.34,0,0,1,477.64,202l-9.81,24h0l-33.2-14h0l9.81-24A17.88,17.88,0,0,1,467.93,178.15Z"/><path class="cls-7" d="M401.41,359.14a18,18,0,0,0,2.07-.14h-4.2A18.73,18.73,0,0,0,401.41,359.14Z"/><path class="cls-7" d="M421.66,323.09,440,278.16l-22.12-9.3-18.34,44.92a6.16,6.16,0,0,0,.78,6,6.14,6.14,0,0,1,.78,6l-5.19,12.74a6.11,6.11,0,0,0,3.09,8,6,6,0,0,0,7.88-3.14l.09-.21,5.2-12.74a6,6,0,0,1,4.75-3.7,6,6,0,0,0,4.75-3.69Z"/></g></g></svg>