<svg xmlns="http://www.w3.org/2000/svg" xmlns:xlink="http://www.w3.org/1999/xlink" viewBox="0 0 1506.16 1506.16"><defs><style>.cls-1{isolation:isolate;}.cls-2{fill:url(#radial-gradient);}.cls-3{fill:url(#radial-gradient-2);}.cls-4{opacity:0.5;mix-blend-mode:screen;fill:url(#radial-gradient-3);}</style><radialGradient id="radial-gradient" cx="746.05" cy="749.63" r="761.43" gradientUnits="userSpaceOnUse"><stop offset="0" stop-color="#f20074"/><stop offset="0.38" stop-color="#f10174" stop-opacity="0.99"/><stop offset="0.51" stop-color="#ed0376" stop-opacity="0.96"/><stop offset="0.61" stop-color="#e70679" stop-opacity="0.92"/><stop offset="0.69" stop-color="#df0b7d" stop-opacity="0.85"/><stop offset="0.75" stop-color="#d31182" stop-opacity="0.75"/><stop offset="0.81" stop-color="#c51988" stop-opacity="0.64"/><stop offset="0.87" stop-color="#b42290" stop-opacity="0.51"/><stop offset="0.92" stop-color="#a02d98" stop-opacity="0.35"/><stop offset="0.96" stop-color="#8b39a2" stop-opacity="0.18"/><stop offset="1" stop-color="#7446ac" stop-opacity="0"/></radialGradient><radialGradient id="radial-gradient-2" cx="817.39" cy="162.86" r="1327.53" gradientTransform="translate(753.08 -311.94) rotate(45)" gradientUnits="userSpaceOnUse"><stop offset="0" stop-color="#f20074"/><stop offset="0.14" stop-color="#ed0376"/><stop offset="0.31" stop-color="#df0b7d"/><stop offset="0.49" stop-color="#c71887"/><stop offset="0.67" stop-color="#a62a96"/><stop offset="0.87" stop-color="#7b42a9"/><stop offset="0.9" stop-color="#7446ac"/></radialGradient><radialGradient id="radial-gradient-3" cx="678.45" cy="-80.41" r="1127.69" gradientUnits="userSpaceOnUse"><stop offset="0.05" stop-color="#e0a326"/><stop offset="0.41" stop-color="#e0a227" stop-opacity="0.99"/><stop offset="0.55" stop-color="#df9e2b" stop-opacity="0.96"/><stop offset="0.64" stop-color="#de9833" stop-opacity="0.91"/><stop offset="0.71" stop-color="#dd8f3e" stop-opacity="0.83"/><stop offset="0.78" stop-color="#db844c" stop-opacity="0.73"/><stop offset="0.84" stop-color="#d8755d" stop-opacity="0.61"/><stop offset="0.89" stop-color="#d56471" stop-opacity="0.47"/><stop offset="0.93" stop-color="#d25089" stop-opacity="0.3"/><stop offset="0.98" stop-color="#ce3ba3" stop-opacity="0.12"/><stop offset="1" stop-color="#cc2db4" stop-opacity="0"/></radialGradient></defs><title>planet</title><g class="cls-1"><g id="Capa_2" data-name="Capa 2"><g id="Capa_1-2" data-name="Capa 1"><circle class="cls-2" cx="753.08" cy="753.08" r="753.08"/><circle class="cls-3" cx="753.08" cy="753.08" r="674.25" transform="translate(-311.94 753.08) rotate(-45)"/><path class="cls-4" d="M493.91,237.33c-3.56-9.87,7.69-23,25.11-29.23s34.44-3.36,38,6.52-7.69,23-25.12,29.23S497.46,247.2,493.91,237.33ZM476,287.91c10.6-3.82,17.44-11.78,15.28-17.79s-12.51-7.78-23.11-4-17.44,11.77-15.28,17.78S465.41,291.72,476,287.91Zm130.16-48.2c10.6-3.81,17.43-11.77,15.27-17.78s-12.5-7.78-23.1-4-17.44,11.78-15.28,17.79S595.57,243.53,606.17,239.71Zm456.71,115.56c3-10.06,19.8-13.95,37.55-8.68s29.73,17.69,26.75,27.75-19.8,14-37.55,8.68S1059.9,365.33,1062.88,355.27Zm89,68.4c10.8,3.2,21,.84,22.84-5.28s-5.46-13.68-16.26-16.88-21-.84-22.85,5.28S1141.12,420.47,1151.92,423.67Z"/></g></g></g></svg>